<?xml version="1.0" encoding="UTF-8" standalone="no"?>
<!DOCTYPE svg PUBLIC "-//W3C//DTD SVG 1.1//EN" "http://www.w3.org/Graphics/SVG/1.1/DTD/svg11.dtd">
<svg xmlns="http://www.w3.org/2000/svg" version="1.1" viewBox="0 0 300 110">
<g stroke-width="2.00" fill="none" stroke-linecap="butt">
<path stroke="#7f6c0f" vector-effect="non-scaling-stroke" d="
  M 6.75 26.04
  L 7.23 29.17"
/>
<path stroke="#7f5107" vector-effect="non-scaling-stroke" d="
  M 7.23 29.17
  L 8.29 39.25"
/>
<path stroke="#7f3402" vector-effect="non-scaling-stroke" d="
  M 8.29 39.25
  L 9.66 49.58"
/>
<path stroke="#7f2101" vector-effect="non-scaling-stroke" d="
  M 9.66 49.58
  L 10.25 54.04"
/>
<path stroke="#7e0801" vector-effect="non-scaling-stroke" d="
  M 10.25 54.04
  L 12.26 69.65
  Q 12.45 71.17 13.83 70.49
  Q 26.32 64.34 36.04 55.00"
/>
<path stroke="#7f2101" vector-effect="non-scaling-stroke" d="
  M 36.04 55.00
  L 41.25 48.93"
/>
<path stroke="#7f3402" vector-effect="non-scaling-stroke" d="
  M 41.25 48.93
  L 43.71 45.75"
/>
<path stroke="#7f4204" vector-effect="non-scaling-stroke" d="
  M 43.71 45.75
  L 49.79 36.50"
/>
<path stroke="#7f5b0a" vector-effect="non-scaling-stroke" d="
  M 49.79 36.50
  L 51.71 32.75"
/>
<path stroke="#7f6c0f" vector-effect="non-scaling-stroke" d="
  M 51.71 32.75
  Q 53.53 29.49 54.14 26.09"
/>
<path stroke="#7f7f15" vector-effect="non-scaling-stroke" d="
  M 54.14 26.09
  C 57.05 19.52 59.11 10.02 50.42 7.27
  C 36.68 2.93 18.29 10.14 6.17 17.66
  Q 5.76 17.92 5.82 18.40
  L 6.75 26.04"
/>
<path stroke="#feea24" vector-effect="non-scaling-stroke" d="
  M 54.14 26.09
  Q 53.32 24.83 53.40 23.31
  Q 53.42 22.72 52.83 22.66
  Q 46.16 22.05 39.58 23.31
  Q 39.06 23.41 39.01 23.94
  Q 38.90 25.23 37.79 25.75"
/>
<path stroke="#7f7f15" vector-effect="non-scaling-stroke" d="
  M 37.79 25.75
  C 38.43 17.08 28.06 23.25 25.00 25.79"
/>
<path stroke="#fecf1c" vector-effect="non-scaling-stroke" d="
  M 25.00 25.79
  L 23.79 26.75"
/>
<path stroke="#feea24" vector-effect="non-scaling-stroke" d="
  M 23.79 26.75
  L 24.37 23.55
  Q 24.49 22.90 23.83 22.90
  L 8.53 22.73
  Q 7.78 22.72 7.95 23.45
  Q 8.43 25.42 6.75 26.04"
/>
<path stroke="#febc16" vector-effect="non-scaling-stroke" d="
  M 23.79 26.75
  Q 23.48 27.49 23.48 28.27
  Q 23.49 28.78 22.98 28.79
  L 7.23 29.17"
/>
<path stroke="#fe8409" vector-effect="non-scaling-stroke" d="
  M 25.71 39.50
  Q 25.52 39.85 25.01 39.91
  Q 24.76 39.94 24.64 39.71
  L 23.94 38.30
  Q 23.79 38.00 23.45 38.04
  C 18.61 38.62 14.02 37.93 9.17 38.65
  Q 8.83 38.70 8.59 38.95
  L 8.29 39.25"
/>
<path stroke="#fec619" vector-effect="non-scaling-stroke" d="
  M 51.71 32.75
  Q 51.48 32.82 51.29 32.76
  Q 50.81 32.61 50.94 32.13
  L 52.09 27.83
  Q 52.24 27.28 51.69 27.12
  C 47.89 26.01 44.11 27.78 40.04 27.22
  Q 39.52 27.14 39.23 27.59
  Q 38.53 28.73 37.25 28.21"
/>
<path stroke="#7f6c0f" vector-effect="non-scaling-stroke" d="
  M 37.79 25.75
  L 37.25 28.21"
/>
<path stroke="#7f5b0a" vector-effect="non-scaling-stroke" d="
  M 37.25 28.21
  L 34.21 33.75"
/>
<path stroke="#7f4204" vector-effect="non-scaling-stroke" d="
  M 34.21 33.75
  L 26.75 42.46"
/>
<path stroke="#7f3402" vector-effect="non-scaling-stroke" d="
  M 26.75 42.46
  Q 26.51 42.52 26.25 42.80
  Q 25.76 43.33 25.75 42.61
  L 25.71 39.50"
/>
<path stroke="#7f5107" vector-effect="non-scaling-stroke" d="
  M 25.71 39.50
  L 25.00 25.79"
/>
<path stroke="#fe5403" vector-effect="non-scaling-stroke" d="
  M 41.25 48.93
  L 38.47 50.89
  Q 38.09 51.17 37.84 50.76
  Q 36.86 49.15 35.66 49.11
  Q 29.30 48.85 9.66 49.58"
/>
<path stroke="#fe9c0e" vector-effect="non-scaling-stroke" d="
  M 49.79 36.50
  Q 49.44 35.45 49.74 34.38
  Q 49.84 34.03 49.48 34.12
  Q 48.65 34.33 48.02 33.82
  Q 47.65 33.52 47.18 33.53
  L 34.21 33.75"
/>
<path stroke="#fe7506" vector-effect="non-scaling-stroke" d="
  M 43.71 45.75
  Q 43.32 43.87 44.63 42.32
  Q 45.05 41.82 44.53 41.42
  C 41.70 39.28 34.32 40.63 30.68 40.81
  Q 30.17 40.83 29.89 41.26
  Q 28.73 43.04 26.75 42.46"
/>
<path stroke="#fd2902" vector-effect="non-scaling-stroke" d="
  M 36.04 55.00
  L 36.10 54.64
  Q 36.22 53.84 35.46 54.10
  L 34.78 54.32
  Q 34.29 54.49 34.26 53.97
  L 34.22 53.09
  Q 34.18 52.31 33.62 52.85
  Q 32.94 53.52 32.14 53.18
  Q 31.69 52.99 31.21 52.99
  Q 24.75 53.03 18.27 52.98
  C 15.57 52.96 13.06 53.87 10.25 54.04"
/>
<path stroke="#7f4204" vector-effect="non-scaling-stroke" d="
  M 192.46 30.00
  L 188.96 47.75"
/>
<path stroke="#7f3402" vector-effect="non-scaling-stroke" d="
  M 188.96 47.75
  L 188.25 52.96"
/>
<path stroke="#7f2101" vector-effect="non-scaling-stroke" d="
  M 188.25 52.96
  L 187.71 56.00"
/>
<path stroke="#7e0801" vector-effect="non-scaling-stroke" d="
  M 187.71 56.00
  L 187.30 68.01
  A 0.40 0.40 0.0 0 0 187.79 68.41
  Q 197.47 66.19 206.29 61.50"
/>
<path stroke="#7f2101" vector-effect="non-scaling-stroke" d="
  M 206.29 61.50
  C 210.94 59.41 216.85 54.53 215.54 48.75"
/>
<path stroke="#7f3402" vector-effect="non-scaling-stroke" d="
  M 215.54 48.75
  C 213.86 45.40 210.67 46.01 209.29 43.75"
/>
<path stroke="#7f4204" vector-effect="non-scaling-stroke" d="
  M 209.29 43.75
  Q 216.11 39.61 221.54 33.71"
/>
<path stroke="#7f5b0a" vector-effect="non-scaling-stroke" d="
  M 221.54 33.71
  L 224.33 29.65"
/>
<path stroke="#7f6c0f" vector-effect="non-scaling-stroke" d="
  M 224.33 29.65
  Q 226.43 25.60 224.26 20.92"
/>
<path stroke="#7f7f15" vector-effect="non-scaling-stroke" d="
  M 224.26 20.92
  Q 210.52 14.82 195.67 18.21
  Q 195.25 18.31 195.15 18.72
  L 192.46 30.00"
/>
<path stroke="#feea24" vector-effect="non-scaling-stroke" d="
  M 224.26 20.92
  C 223.76 22.73 222.75 23.13 221.74 21.82
  Q 221.42 21.40 221.00 21.09
  Q 219.50 20.00 217.65 20.26
  Q 217.16 20.33 216.80 20.01
  C 214.57 18.07 200.85 18.98 197.54 19.33
  Q 197.03 19.38 196.77 19.83
  C 194.85 23.10 195.55 26.89 193.75 29.79"
/>
<path stroke="#fec019" vector-effect="non-scaling-stroke" d="
  M 193.75 29.79
  L 192.46 30.00"
/>
<path stroke="#fe7506" vector-effect="non-scaling-stroke" d="
  M 209.29 43.75
  L 208.92 42.72
  Q 208.78 42.35 208.39 42.35
  L 191.76 42.34
  Q 191.15 42.34 191.01 42.93
  L 189.99 47.58
  Q 189.89 48.02 189.45 47.98
  Q 189.19 47.96 188.96 47.75"
/>
<path stroke="#fec619" vector-effect="non-scaling-stroke" d="
  M 224.33 29.65
  Q 223.08 29.52 223.39 27.68
  Q 223.48 27.12 222.92 27.02
  Q 215.51 25.77 208.65 28.13"
/>
<path stroke="#7f6c0f" vector-effect="non-scaling-stroke" d="
  M 208.65 28.13
  L 204.73 28.50
  Q 204.23 28.54 204.09 29.03
  L 202.23 35.72
  Q 202.06 36.34 202.69 36.47
  Q 203.02 36.53 203.46 36.25"
/>
<path stroke="#fec619" vector-effect="non-scaling-stroke" d="
  M 203.46 36.25
  L 204.04 37.25"
/>
<path stroke="#fead13" vector-effect="non-scaling-stroke" d="
  M 204.04 37.25
  Q 202.71 37.65 201.46 37.09
  Q 201.03 36.90 200.56 36.90
  L 193.12 36.85
  Q 192.67 36.84 192.71 36.40
  L 193.13 31.51
  Q 193.17 31.07 193.43 30.72
  Q 193.74 30.31 193.75 29.79"
/>
<path stroke="#fe5403" vector-effect="non-scaling-stroke" d="
  M 215.54 48.75
  L 215.50 49.11
  Q 215.46 49.53 215.07 49.38
  Q 213.60 48.84 213.01 47.38
  Q 212.83 46.91 212.32 46.94
  C 210.74 47.01 206.14 46.93 205.02 48.08
  Q 204.66 48.45 204.20 48.21
  L 201.38 46.76
  Q 200.77 46.44 200.46 47.05
  L 200.00 47.96"
/>
<path stroke="#7f3402" vector-effect="non-scaling-stroke" d="
  M 200.00 47.96
  Q 199.71 48.12 199.52 48.36
  Q 199.21 48.77 199.24 49.28
  Q 199.37 51.31 198.43 53.32"
/>
<path stroke="#fe5403" vector-effect="non-scaling-stroke" d="
  M 198.43 53.32
  L 197.59 49.60
  Q 197.46 49.04 196.90 48.91
  Q 193.65 48.18 190.62 49.63
  Q 190.26 49.81 190.25 50.21
  Q 190.25 50.35 190.24 50.50
  Q 190.19 50.94 189.80 51.17
  Q 188.74 51.78 188.25 52.96"
/>
<path stroke="#fe9c0e" vector-effect="non-scaling-stroke" d="
  M 221.54 33.71
  Q 219.14 34.30 216.32 36.52
  A 0.96 0.94 -47.6 0 1 215.21 36.58
  Q 213.45 35.45 211.67 36.49
  A 1.34 1.34 0.0 0 1 209.98 36.21
  L 209.33 35.45
  Q 208.98 35.05 208.50 35.27
  L 204.04 37.25"
/>
<path stroke="#7f5b0a" vector-effect="non-scaling-stroke" d="
  M 203.46 36.25
  C 206.42 35.03 211.86 32.17 208.65 28.13"
/>
<path stroke="#fd2902" vector-effect="non-scaling-stroke" d="
  M 206.29 61.50
  L 206.67 60.33
  Q 206.80 59.93 207.13 59.69
  L 211.42 56.56
  A 0.68 0.68 0.0 0 0 211.12 55.34
  L 204.46 54.28
  Q 203.89 54.19 203.51 54.63
  Q 201.91 56.47 199.49 56.92
  Q 198.98 57.01 198.65 56.61
  L 197.13 54.78
  Q 196.83 54.42 196.35 54.46
  C 194.93 54.59 188.03 53.91 188.27 56.71
  Q 188.34 57.58 188.02 56.77
  L 187.71 56.00"
/>
<path stroke="#7f2101" vector-effect="non-scaling-stroke" d="
  M 198.43 53.32
  Q 198.27 54.34 198.60 55.36
  Q 198.79 55.94 199.33 55.65
  C 201.63 54.42 204.83 52.06 203.46 49.20
  Q 203.23 48.73 202.73 48.61
  L 200.00 47.96"
/>
<path stroke="#807f7e" vector-effect="non-scaling-stroke" d="
  M 140.5832 69.9800
  A 24.73 20.14 89.9 0 0 160.6800 45.2148
  A 24.73 20.14 89.9 0 0 140.4968 20.5200
  A 24.73 20.14 89.9 0 0 120.4000 45.2852
  A 24.73 20.14 89.9 0 0 140.5832 69.9800"
/>
<path stroke="#7f5b0a" vector-effect="non-scaling-stroke" d="
  M 262.50 28.96
  L 261.96 32.00"
/>
<path stroke="#7f4204" vector-effect="non-scaling-stroke" d="
  M 261.96 32.00
  L 260.54 45.50"
/>
<path stroke="#7f3402" vector-effect="non-scaling-stroke" d="
  M 260.54 45.50
  L 259.98 51.68
  Q 259.93 52.24 260.50 52.17
  C 265.74 51.46 272.08 49.54 277.21 49.75"
/>
<path stroke="#7f2101" vector-effect="non-scaling-stroke" d="
  M 277.21 49.75
  L 275.39 56.19
  Q 275.23 56.75 275.80 56.64
  L 288.72 54.20
  Q 289.36 54.08 289.56 53.46
  L 291.21 48.50"
/>
<path stroke="#7f3402" vector-effect="non-scaling-stroke" d="
  M 291.21 48.50
  L 292.61 44.21
  Q 292.78 43.70 292.25 43.79
  L 273.25 47.02
  Q 272.28 47.19 272.25 46.19
  L 272.21 44.25"
/>
<path stroke="#7f4204" vector-effect="non-scaling-stroke" d="
  M 272.21 44.25
  L 273.46 32.00"
/>
<path stroke="#7f5b0a" vector-effect="non-scaling-stroke" d="
  M 273.46 32.00
  L 273.79 30.50"
/>
<path stroke="#7f6c0f" vector-effect="non-scaling-stroke" d="
  M 273.79 30.50
  L 275.39 22.28
  Q 275.48 21.82 275.01 21.87
  L 263.94 23.22
  A 1.07 1.07 0.0 0 0 263.00 24.17
  L 262.50 28.96"
/>
<path stroke="#fec619" vector-effect="non-scaling-stroke" d="
  M 273.79 30.50
  Q 272.86 27.87 272.97 24.82
  Q 272.99 24.28 272.45 24.22
  C 269.54 23.87 263.00 23.28 264.37 27.68
  Q 264.54 28.21 264.02 28.40
  L 262.50 28.96"
/>
<path stroke="#fe9c0e" vector-effect="non-scaling-stroke" d="
  M 273.46 32.00
  L 273.19 33.07
  Q 273.06 33.59 272.68 33.21
  C 271.07 31.61 264.39 32.43 261.96 32.00"
/>
<path stroke="#fe7506" vector-effect="non-scaling-stroke" d="
  M 272.21 44.25
  Q 267.92 44.85 263.62 44.29
  Q 263.11 44.22 262.75 44.60
  Q 261.86 45.56 260.54 45.50"
/>
<path stroke="#fe5403" vector-effect="non-scaling-stroke" d="
  M 291.21 48.50
  Q 290.64 48.71 290.19 49.16
  Q 289.75 49.59 289.73 48.97
  L 289.66 47.10
  A 1.15 1.14 84.7 0 0 288.34 46.00
  L 279.26 47.45
  Q 278.77 47.53 278.42 47.88
  Q 277.65 48.66 277.21 49.75"
/>
<path stroke="#7f2101" vector-effect="non-scaling-stroke" d="
  M 52.71 40.25
  Q 49.35 45.33 45.99 50.41
  C 44.65 52.44 44.61 54.45 44.21 56.75"
/>
<path stroke="#7e0801" vector-effect="non-scaling-stroke" d="
  M 44.21 56.75
  L 42.48 67.78
  Q 42.43 68.14 42.79 68.12
  C 47.15 67.89 48.65 65.61 51.98 64.65
  Q 52.45 64.51 52.65 64.07
  Q 53.42 62.30 53.01 60.42
  Q 52.91 59.95 53.12 59.51
  Q 53.95 57.82 53.79 56.00"
/>
<path stroke="#7f2101" vector-effect="non-scaling-stroke" d="
  M 53.79 56.00
  Q 55.70 53.65 58.79 54.00"
/>
<path stroke="#7e0801" vector-effect="non-scaling-stroke" d="
  M 58.79 54.00
  L 59.04 61.76
  Q 59.06 62.30 59.59 62.17
  Q 60.39 61.97 60.79 61.63"
/>
<path stroke="#7f2101" vector-effect="non-scaling-stroke" d="
  M 60.79 61.63
  L 65.50 59.96"
/>
<path stroke="#7e0801" vector-effect="non-scaling-stroke" d="
  M 65.50 59.96
  Q 66.38 60.05 67.06 59.67
  Q 67.54 59.41 67.44 58.87
  L 65.79 50.50"
/>
<path stroke="#7f2101" vector-effect="non-scaling-stroke" d="
  M 65.79 50.50
  L 65.79 49.75"
/>
<path stroke="#7f3402" vector-effect="non-scaling-stroke" d="
  M 65.79 49.75
  Q 69.70 47.10 72.50 43.29"
/>
<path stroke="#7f5107" vector-effect="non-scaling-stroke" d="
  M 72.50 43.29
  C 75.01 40.82 78.39 36.06 76.43 32.44
  C 73.37 26.81 63.15 28.26 57.98 29.71
  Q 57.52 29.84 57.32 30.28
  L 52.71 40.25"
/>
<path stroke="#fe8409" vector-effect="non-scaling-stroke" d="
  M 72.50 43.29
  L 71.00 44.09
  Q 69.67 44.79 70.68 43.67
  L 72.71 41.41
  Q 73.00 41.08 73.00 40.64
  L 73.00 40.00
  Q 73.00 39.42 72.43 39.40
  L 67.47 39.21
  Q 67.06 39.20 66.85 39.55
  L 66.69 39.82
  Q 66.42 40.27 66.02 39.94
  Q 65.54 39.55 65.42 39.02"
/>
<path stroke="#7f5107" vector-effect="non-scaling-stroke" d="
  M 65.42 39.02
  C 65.13 35.47 58.72 37.47 56.34 37.87
  Q 55.85 37.95 55.80 38.45
  L 55.21 44.50"
/>
<path stroke="#fe7108" vector-effect="non-scaling-stroke" d="
  M 55.21 44.50
  Q 53.74 43.99 53.98 42.56
  Q 54.07 42.04 53.76 41.63
  L 52.71 40.25"
/>
<path stroke="#fe5403" vector-effect="non-scaling-stroke" d="
  M 65.79 49.75
  Q 66.02 48.62 67.01 48.26
  Q 67.41 48.12 67.66 47.77
  Q 68.07 47.19 67.93 46.57
  Q 67.70 45.62 67.35 46.53
  Q 66.51 48.68 65.02 47.61
  Q 64.55 47.27 63.97 47.26
  Q 61.17 47.24 58.61 46.20
  Q 58.05 45.97 57.69 46.46
  Q 57.22 47.12 56.36 46.98
  Q 55.88 46.90 55.76 46.43
  Q 55.65 46.00 55.75 45.54"
/>
<path stroke="#7f3402" vector-effect="non-scaling-stroke" d="
  M 65.42 39.02
  Q 61.47 43.71 55.75 45.54"
/>
<path stroke="#7f2101" vector-effect="non-scaling-stroke" d="
  M 55.75 45.54
  L 55.21 44.50"
/>
<path stroke="#fd2902" vector-effect="non-scaling-stroke" d="
  M 65.79 50.50
  L 65.40 56.02
  Q 65.36 56.52 65.57 56.97
  Q 66.28 58.44 65.50 59.96"
/>
<path stroke="#fd2902" vector-effect="non-scaling-stroke" d="
  M 60.79 61.63
  Q 59.95 58.39 60.30 55.07
  Q 60.37 54.50 59.79 54.53
  Q 59.12 54.56 58.79 54.00"
/>
<path stroke="#fd2902" vector-effect="non-scaling-stroke" d="
  M 53.79 56.00
  L 53.74 55.49
  Q 53.69 54.94 53.30 55.33
  L 53.01 55.61
  Q 52.72 55.90 52.46 55.59
  C 51.28 54.18 48.27 54.91 46.65 55.04
  Q 46.12 55.08 45.88 55.56
  L 44.41 58.48
  Q 44.27 58.74 44.26 58.45
  L 44.21 56.75"
/>
<path stroke="#7f4204" vector-effect="non-scaling-stroke" d="
  M 98.61 38.95
  L 102.00 54.29"
/>
<path stroke="#7e0801" vector-effect="non-scaling-stroke" d="
  M 102.00 54.29
  L 103.58 62.64
  A 2.03 2.01 -83.4 0 0 104.72 64.09
  Q 114.59 68.62 119.01 59.29
  Q 119.24 58.80 119.10 58.28
  L 117.25 51.71"
/>
<path stroke="#7f3402" vector-effect="non-scaling-stroke" d="
  M 117.25 51.71
  L 116.70 45.26
  Q 116.66 44.77 116.17 44.73
  L 109.65 44.31
  Q 109.00 44.27 109.00 44.92
  L 109.00 50.80
  Q 109.00 51.52 109.70 51.33
  Q 112.48 50.56 113.82 52.54"
/>
<path stroke="#7e0801" vector-effect="non-scaling-stroke" d="
  M 113.82 52.54
  C 112.96 58.71 106.90 57.53 104.79 53.50"
/>
<path stroke="#7f4204" vector-effect="non-scaling-stroke" d="
  M 104.79 53.50
  Q 102.38 45.02 109.04 39.50"
/>
<path stroke="#7f5107" vector-effect="non-scaling-stroke" d="
  M 109.04 39.50
  Q 112.99 37.57 116.53 39.91
  Q 116.83 40.11 116.94 39.77
  L 119.44 31.81
  Q 119.56 31.42 119.18 31.28
  Q 105.03 26.06 98.61 38.95"
/>
<path stroke="#fe920b" vector-effect="non-scaling-stroke" d="
  M 109.04 39.50
  C 108.93 38.64 108.91 38.17 108.02 37.77
  Q 103.19 35.62 98.61 38.95"
/>
<path stroke="#fd4a05" vector-effect="non-scaling-stroke" d="
  M 104.79 53.50
  Q 103.55 54.40 102.00 54.29"
/>
<path stroke="#fd3c03" vector-effect="non-scaling-stroke" d="
  M 117.25 51.71
  L 113.82 52.54"
/>
<path stroke="#7f4204" vector-effect="non-scaling-stroke" d="
  M 163.96 40.00
  L 164.29 48.25"
/>
<path stroke="#7f3402" vector-effect="non-scaling-stroke" d="
  M 164.29 48.25
  L 163.71 52.25"
/>
<path stroke="#7e0801" vector-effect="non-scaling-stroke" d="
  M 163.71 52.25
  Q 162.31 58.79 158.45 64.28
  Q 157.98 64.94 158.77 64.77
  L 163.08 63.85
  Q 163.69 63.72 163.80 63.10
  L 165.71 52.00"
/>
<path stroke="#7f3402" vector-effect="non-scaling-stroke" d="
  M 165.71 52.00
  L 166.30 50.17
  Q 166.56 49.38 166.98 50.10
  Q 167.89 51.67 168.12 53.84"
/>
<path stroke="#7e0801" vector-effect="non-scaling-stroke" d="
  M 168.12 53.84
  L 169.71 61.59
  Q 169.81 62.10 170.33 62.06
  C 174.58 61.74 180.26 61.36 179.96 55.50"
/>
<path stroke="#7f3402" vector-effect="non-scaling-stroke" d="
  M 179.96 55.50
  Q 182.11 52.26 182.82 48.92"
/>
<path stroke="#7f4204" vector-effect="non-scaling-stroke" d="
  M 182.82 48.92
  C 185.60 44.99 185.80 39.69 186.90 35.10
  Q 187.04 34.51 186.44 34.48
  L 181.63 34.18
  Q 181.04 34.15 180.76 34.65
  L 174.52 45.69"
/>
<path stroke="#7f3402" vector-effect="non-scaling-stroke" d="
  M 174.52 45.69
  Q 173.29 45.36 173.21 44.25"
/>
<path stroke="#7f5107" vector-effect="non-scaling-stroke" d="
  M 173.21 44.25
  L 172.88 33.71
  Q 172.86 33.03 172.18 33.03
  L 164.78 32.95
  Q 164.30 32.95 164.13 33.39
  Q 162.86 36.66 163.96 40.00"
/>
<path stroke="#fe8409" vector-effect="non-scaling-stroke" d="
  M 173.21 44.25
  L 171.75 44.21"
/>
<path stroke="#fe920b" vector-effect="non-scaling-stroke" d="
  M 171.75 44.21
  Q 170.81 39.77 171.54 35.17
  Q 171.64 34.55 171.01 34.54
  L 166.61 34.48
  Q 166.03 34.47 165.62 34.89
  Q 164.74 35.79 165.00 37.04
  Q 165.10 37.50 164.70 37.77
  Q 163.60 38.51 163.96 40.00"
/>
<path stroke="#fe7506" vector-effect="non-scaling-stroke" d="
  M 171.75 44.21
  L 166.56 43.95
  Q 166.09 43.93 166.10 44.40
  L 166.19 47.06
  Q 166.20 47.45 165.81 47.48
  Q 164.85 47.57 164.29 48.25"
/>
<path stroke="#fd3c03" vector-effect="non-scaling-stroke" d="
  M 179.96 55.50
  Q 179.10 54.13 179.59 53.12
  A 1.02 1.02 0.0 0 0 178.67 51.66
  L 170.01 51.71
  Q 169.55 51.71 169.24 52.04
  Q 168.55 52.77 168.12 53.84"
/>
<path stroke="#fd3c03" vector-effect="non-scaling-stroke" d="
  M 165.71 52.00
  L 163.71 52.25"
/>
<path stroke="#fe7506" vector-effect="non-scaling-stroke" d="
  M 182.82 48.92
  Q 182.46 47.77 183.06 46.49
  C 183.59 45.34 183.76 44.32 183.28 43.29
  Q 183.07 42.84 182.57 42.81
  Q 180.15 42.62 177.86 43.57
  Q 177.35 43.78 177.15 44.29
  Q 176.36 46.29 174.52 45.69"
/>
<path stroke="#7f4204" vector-effect="non-scaling-stroke" d="
  M 241.21 37.25
  L 240.25 43.96"
/>
<path stroke="#7f2101" vector-effect="non-scaling-stroke" d="
  M 240.25 43.96
  C 239.01 51.62 238.73 54.45 240.71 61.00"
/>
<path stroke="#7e0801" vector-effect="non-scaling-stroke" d="
  M 240.71 61.00
  L 242.75 68.27
  Q 242.91 68.87 243.52 68.77
  L 267.04 64.87
  Q 267.60 64.78 267.78 64.25
  L 271.07 54.84
  A 0.29 0.29 0.0 0 0 270.75 54.46
  L 250.75 57.79"
/>
<path stroke="#7f2101" vector-effect="non-scaling-stroke" d="
  M 250.75 57.79
  C 249.69 54.53 251.72 45.45 252.00 41.54"
/>
<path stroke="#7f4204" vector-effect="non-scaling-stroke" d="
  M 252.00 41.54
  L 252.54 38.25"
/>
<path stroke="#7f5107" vector-effect="non-scaling-stroke" d="
  M 252.54 38.25
  L 253.59 33.04
  Q 253.70 32.49 253.14 32.56
  L 242.31 33.94
  Q 241.66 34.02 241.57 34.67
  L 241.21 37.25"
/>
<path stroke="#fe920b" vector-effect="non-scaling-stroke" d="
  M 252.54 38.25
  L 251.91 35.22
  A 1.09 1.09 0.0 0 0 250.71 34.35
  L 243.58 35.21
  Q 243.14 35.26 243.05 35.70
  Q 242.70 37.31 241.21 37.25"
/>
<path stroke="#fd6205" vector-effect="non-scaling-stroke" d="
  M 252.00 41.54
  L 251.35 43.40
  Q 251.17 43.91 250.65 43.76
  Q 245.43 42.32 240.25 43.96"
/>
<path stroke="#fd2902" vector-effect="non-scaling-stroke" d="
  M 250.75 57.79
  L 250.33 58.53
  Q 250.08 58.97 249.57 58.99
  C 248.53 59.02 240.82 57.99 241.73 60.20
  Q 242.01 60.86 241.30 60.94
  L 240.71 61.00"
/>
<path stroke="#7e0801" vector-effect="non-scaling-stroke" d="
  M 78.28 51.75
  L 74.24 66.03
  Q 74.15 66.34 74.47 66.31
  L 81.67 65.71
  Q 82.06 65.68 82.21 65.32
  L 84.14 60.68
  Q 84.34 60.21 84.84 60.06
  L 89.14 58.76
  Q 89.79 58.56 89.85 59.24
  L 90.08 61.90
  A 0.84 0.84 0.0 0 0 91.16 62.63
  L 96.73 60.91
  Q 98.37 60.41 98.08 58.71
  L 95.96 46.50"
/>
<path stroke="#7f3402" vector-effect="non-scaling-stroke" d="
  M 95.96 46.50
  L 94.06 36.70
  Q 93.93 36.03 93.25 36.08
  L 83.10 36.90
  Q 82.51 36.94 82.35 37.51
  L 78.28 51.75"
/>
<path stroke="#fd3c03" vector-effect="non-scaling-stroke" d="
  M 95.96 46.50
  Q 95.59 47.36 95.83 48.28
  Q 95.95 48.76 95.49 48.92
  Q 93.73 49.54 91.84 48.67
  Q 91.36 48.45 90.84 48.55
  L 87.82 49.12"
/>
<path stroke="#7f3402" vector-effect="non-scaling-stroke" d="
  M 87.82 49.12
  L 87.46 47.77
  Q 87.23 46.87 86.98 47.76
  L 85.71 52.25"
/>
<path stroke="#fd3c03" vector-effect="non-scaling-stroke" d="
  M 85.71 52.25
  Q 84.81 50.08 86.15 48.20
  Q 86.46 47.77 86.08 47.39
  Q 84.01 45.27 81.27 46.81
  Q 80.74 47.11 80.72 47.71
  Q 80.62 50.46 78.28 51.75"
/>
<path stroke="#7e0801" vector-effect="non-scaling-stroke" d="
  M 85.71 52.25
  L 85.38 54.41
  Q 85.29 55.02 85.87 54.81
  L 87.97 54.04
  Q 88.52 53.83 88.44 53.25
  L 87.82 49.12"
/>
<path stroke="#7e0801" vector-effect="non-scaling-stroke" d="
  M 219.96 53.25
  Q 217.87 58.30 213.70 61.86
  Q 213.27 62.23 213.26 62.79
  Q 213.21 65.08 211.99 66.97
  Q 211.55 67.65 212.34 67.51
  L 221.59 65.86
  Q 222.17 65.76 222.16 65.18
  L 222.11 62.17
  Q 222.10 61.65 222.59 61.47
  Q 224.95 60.59 227.36 61.31
  Q 227.84 61.46 228.06 61.91
  Q 228.83 63.51 229.35 65.21
  Q 229.50 65.68 229.95 65.88
  C 231.95 66.75 233.52 64.73 235.66 65.41
  A 0.87 0.87 0.0 0 0 236.77 64.35
  L 231.89 46.22"
/>
<path stroke="#7f3402" vector-effect="non-scaling-stroke" d="
  M 231.89 46.22
  L 230.07 39.44
  Q 229.95 38.99 229.49 38.90
  L 223.98 37.88
  Q 223.49 37.79 223.12 38.13
  L 217.55 43.17
  A 0.80 0.80 0.0 0 0 217.54 44.35
  Q 221.35 47.90 219.96 53.25"
/>
<path stroke="#fd3c03" vector-effect="non-scaling-stroke" d="
  M 231.89 46.22
  L 231.77 51.17
  Q 231.76 51.81 231.11 51.79
  L 227.15 51.65
  Q 226.85 51.64 226.73 51.91
  L 226.04 53.50"
/>
<path stroke="#7f3402" vector-effect="non-scaling-stroke" d="
  M 226.04 53.50
  L 224.90 48.95
  Q 224.58 47.70 224.37 48.97
  L 223.71 53.00"
/>
<path stroke="#fd3c03" vector-effect="non-scaling-stroke" d="
  M 223.71 53.00
  L 222.90 54.83
  Q 222.68 55.33 222.16 55.16
  Q 221.12 54.83 220.49 55.80
  Q 220.23 56.20 220.18 55.72
  L 219.96 53.25"
/>
<path stroke="#7e0801" vector-effect="non-scaling-stroke" d="
  M 223.71 53.00
  Q 223.90 53.98 223.56 55.04
  Q 223.38 55.60 223.86 55.93
  Q 224.81 56.58 226.01 55.91
  Q 226.48 55.65 226.37 55.13
  L 226.04 53.50"
/>
<path stroke="#fffec7" vector-effect="non-scaling-stroke" d="
  M 140.7699 66.2088
  A 21.00 17.24 89.4 0 0 157.7891 45.0295
  A 21.00 17.24 89.4 0 0 140.3301 24.2112
  A 21.00 17.24 89.4 0 0 123.3109 45.3905
  A 21.00 17.24 89.4 0 0 140.7699 66.2088"
/>
<path stroke="#fffea1" vector-effect="non-scaling-stroke" d="
  M 139.54 33.00
  C 138.72 31.28 135.19 33.44 133.83 33.93
  Q 133.37 34.10 133.21 34.57
  L 131.10 40.90"
/>
<path stroke="#807f49" vector-effect="non-scaling-stroke" d="
  M 131.10 40.90
  L 129.04 41.01
  Q 127.52 41.09 128.66 41.59
  Q 129.05 41.76 129.25 42.04"
/>
<path stroke="#fffea1" vector-effect="non-scaling-stroke" d="
  M 129.25 42.04
  C 125.41 43.92 127.80 47.23 129.79 49.63
  Q 130.16 50.07 130.08 50.64
  L 129.59 54.19
  Q 129.53 54.63 129.91 54.87
  L 133.21 57.00"
/>
<path stroke="#807f49" vector-effect="non-scaling-stroke" d="
  M 133.21 57.00
  Q 133.20 57.20 132.99 57.40
  Q 131.73 58.56 133.58 57.73
  L 134.00 57.54"
/>
<path stroke="#fffea1" vector-effect="non-scaling-stroke" d="
  M 134.00 57.54
  L 140.33 59.89
  Q 140.81 60.07 141.27 59.84
  Q 144.20 58.33 147.50 57.96"
/>
<path stroke="#807f49" vector-effect="non-scaling-stroke" d="
  M 147.50 57.96
  L 147.97 58.05
  Q 148.36 58.13 148.27 57.74
  L 148.00 56.54"
/>
<path stroke="#fffea1" vector-effect="non-scaling-stroke" d="
  M 148.00 56.54
  Q 150.23 53.71 150.26 50.25
  Q 150.26 49.72 150.63 49.34
  Q 153.71 46.10 152.26 41.91"
/>
<path stroke="#807f49" vector-effect="non-scaling-stroke" d="
  M 152.26 41.91
  L 152.74 41.23
  Q 153.07 40.76 152.52 40.93
  Q 152.06 41.08 151.75 40.96"
/>
<path stroke="#fffea1" vector-effect="non-scaling-stroke" d="
  M 151.75 40.96
  Q 151.78 38.25 149.28 37.79
  Q 148.79 37.70 148.52 37.29
  Q 145.99 33.56 141.46 33.00"
/>
<path stroke="#807f49" vector-effect="non-scaling-stroke" d="
  M 141.46 33.00
  L 140.87 30.90
  Q 140.56 29.78 140.21 30.89
  L 139.54 33.00"
/>
<path stroke="#7f7f59" vector-effect="non-scaling-stroke" d="
  M 141.46 33.00
  L 143.14 40.33
  Q 143.28 40.92 143.88 40.93
  L 151.75 40.96"
/>
<path stroke="#7f7f59" vector-effect="non-scaling-stroke" d="
  M 152.26 41.91
  L 145.91 46.54
  Q 145.47 46.86 145.61 47.39
  L 148.00 56.54"
/>
<path stroke="#7f7f59" vector-effect="non-scaling-stroke" d="
  M 147.50 57.96
  L 140.92 52.49
  Q 140.49 52.13 140.05 52.49
  L 134.00 57.54"
/>
<path stroke="#7f7f59" vector-effect="non-scaling-stroke" d="
  M 133.21 57.00
  L 135.28 47.36
  Q 135.40 46.81 134.96 46.46
  L 129.25 42.04"
/>
<path stroke="#7f7f59" vector-effect="non-scaling-stroke" d="
  M 131.10 40.90
  L 137.07 40.92
  Q 137.65 40.93 137.78 40.36
  L 139.54 33.00"
/>
<path stroke="#7e0801" vector-effect="non-scaling-stroke" d="
  M 144.00 42.25
  A 2.50 2.49 84.3 0 1 141.56 40.24
  L 140.93 37.05
  Q 140.69 35.82 140.17 36.96
  Q 139.49 38.43 139.52 40.11
  A 2.11 2.11 0.0 0 1 137.41 42.25
  L 132.97 42.25
  Q 131.50 42.25 132.69 43.12
  L 135.76 45.37
  A 2.39 2.39 0.0 0 1 136.69 47.82
  L 135.43 53.48
  A 0.49 0.49 0.0 0 0 136.21 53.97
  L 140.19 50.81
  Q 140.62 50.47 141.03 50.83
  L 144.73 54.04
  A 0.57 0.56 -76.8 0 0 145.64 53.47
  L 144.06 47.27
  A 1.32 1.31 65.1 0 1 144.56 45.88
  L 148.34 43.17
  Q 149.61 42.25 148.04 42.25
  L 144.00 42.25"
/>
<path stroke="#5d5c5d" vector-effect="non-scaling-stroke" d="
  M 179.50 87.96
  Q 178.96 88.23 178.56 88.12
  Q 178.03 87.98 178.02 87.43
  L 177.96 84.75"
/>
<path stroke="#807f7e" vector-effect="non-scaling-stroke" d="
  M 177.96 84.75
  L 178.31 78.15
  Q 178.35 77.50 177.70 77.50
  L 175.70 77.50
  Q 175.01 77.50 175.02 78.18
  L 175.04 83.25"
/>
<path stroke="#5d5c5d" vector-effect="non-scaling-stroke" d="
  M 175.04 83.25
  Q 174.94 83.34 174.87 83.47
  Q 174.63 83.90 174.30 83.54
  L 174.04 83.25"
/>
<path stroke="#807f7e" vector-effect="non-scaling-stroke" d="
  M 174.04 83.25
  L 170.72 78.01
  Q 170.40 77.50 169.80 77.50
  L 167.67 77.50
  Q 167.06 77.50 167.06 78.11
  L 167.04 81.75"
/>
<path stroke="#5d5c5d" vector-effect="non-scaling-stroke" d="
  M 167.04 81.75
  L 167.01 86.53
  Q 167.00 86.95 166.89 87.35
  Q 166.78 87.74 166.55 88.15
  Q 166.12 88.92 167.00 88.86
  L 169.79 88.70
  Q 170.37 88.67 170.38 88.09
  L 170.50 82.79"
/>
<path stroke="#807f7e" vector-effect="non-scaling-stroke" d="
  M 170.50 82.79
  L 170.82 82.46
  Q 170.99 82.29 171.04 82.53
  Q 171.37 84.37 172.79 85.75"
/>
<path stroke="#5d5c5d" vector-effect="non-scaling-stroke" d="
  M 172.79 85.75
  L 174.43 88.32
  Q 174.71 88.76 175.23 88.75
  L 180.00 88.71"
/>
<path stroke="#5d5c5d" vector-effect="non-scaling-stroke" d="
  M 81.04 85.75
  L 82.15 88.19
  Q 82.37 88.66 82.88 88.70
  C 86.23 88.95 91.58 89.53 92.00 84.79"
/>
<path stroke="#807f7e" vector-effect="non-scaling-stroke" d="
  M 92.00 84.79
  C 94.77 74.36 76.82 74.84 81.04 85.75"
/>
<path stroke="#dddbdb" vector-effect="non-scaling-stroke" d="
  M 92.00 84.79
  Q 91.54 85.03 91.04 85.01
  Q 90.59 84.99 90.51 84.55
  C 90.41 84.04 89.91 83.87 89.46 84.03
  Q 89.00 84.19 89.01 83.70
  Q 89.03 83.06 88.79 82.50"
/>
<path stroke="#807f7e" vector-effect="non-scaling-stroke" d="
  M 88.79 82.50
  Q 88.53 80.05 86.27 79.81
  Q 85.75 79.75 85.34 80.07
  Q 83.19 81.75 83.79 84.75"
/>
<path stroke="#dddbdb" vector-effect="non-scaling-stroke" d="
  M 83.79 84.75
  L 81.04 85.75"
/>
<path stroke="#5d5c5d" vector-effect="non-scaling-stroke" d="
  M 88.79 82.50
  Q 89.13 85.54 86.82 87.23
  Q 86.44 87.51 86.12 87.17
  L 83.79 84.75"
/>
<path stroke="#5d5c5d" vector-effect="non-scaling-stroke" d="
  M 104.79 83.25
  L 105.13 88.03
  Q 105.16 88.57 105.70 88.68
  L 107.18 88.97
  Q 107.82 89.10 107.87 88.45
  L 108.21 83.75"
/>
<path stroke="#807f7e" vector-effect="non-scaling-stroke" d="
  M 108.21 83.75
  Q 109.53 83.25 110.04 85.00"
/>
<path stroke="#5d5c5d" vector-effect="non-scaling-stroke" d="
  M 110.04 85.00
  L 112.23 88.33
  Q 112.46 88.68 112.89 88.68
  L 115.15 88.68
  Q 115.66 88.68 115.80 88.20
  Q 116.24 86.76 115.96 85.25"
/>
<path stroke="#807f7e" vector-effect="non-scaling-stroke" d="
  M 115.96 85.25
  L 115.98 78.05
  Q 115.99 77.46 115.39 77.48
  L 113.18 77.56
  Q 112.52 77.58 112.55 78.24
  L 112.80 82.84
  A 0.46 0.46 0.0 0 1 111.95 83.12
  L 108.60 78.03
  Q 108.24 77.48 107.58 77.49
  L 105.40 77.52
  Q 104.80 77.53 104.80 78.12
  L 104.79 83.25"
/>
<path stroke="#dddbdb" vector-effect="non-scaling-stroke" d="
  M 115.96 85.25
  Q 114.57 86.36 113.68 85.31
  Q 113.48 85.08 113.18 85.03
  L 112.20 84.89
  Q 111.95 84.85 111.98 84.59
  Q 112.00 84.45 112.10 84.31
  Q 112.45 83.83 111.74 84.18
  L 110.04 85.00"
/>
<path stroke="#dddbdb" vector-effect="non-scaling-stroke" d="
  M 108.21 83.75
  Q 106.07 85.26 104.79 83.25"
/>
<path stroke="#5d5c5d" vector-effect="non-scaling-stroke" d="
  M 129.04 83.00
  L 129.04 88.08
  Q 129.04 88.75 129.71 88.75
  L 137.41 88.75
  Q 138.09 88.75 138.02 88.08
  L 137.93 87.18
  Q 137.87 86.56 137.25 86.54
  L 132.83 86.42
  Q 132.27 86.40 132.26 85.84
  L 132.21 82.50"
/>
<path stroke="#807f7e" vector-effect="non-scaling-stroke" d="
  M 132.21 82.50
  L 132.25 78.06
  Q 132.25 77.49 131.68 77.49
  L 129.41 77.52
  Q 128.65 77.53 128.70 78.29
  L 129.04 83.00"
/>
<path stroke="#dddbdb" vector-effect="non-scaling-stroke" d="
  M 132.21 82.50
  Q 130.77 83.37 129.04 83.00"
/>
<path stroke="#5d5c5d" vector-effect="non-scaling-stroke" d="
  M 150.29 84.75
  L 150.44 87.73
  Q 150.46 88.15 150.87 88.19
  L 153.36 88.44
  Q 153.87 88.50 153.88 87.98
  L 153.96 83.75"
/>
<path stroke="#807f7e" vector-effect="non-scaling-stroke" d="
  M 153.96 83.75
  L 153.98 78.06
  Q 153.98 77.49 153.41 77.49
  L 150.90 77.52
  Q 150.30 77.52 150.30 78.13
  L 150.29 84.75"
/>
<path stroke="#dddbdb" vector-effect="non-scaling-stroke" d="
  M 153.96 83.75
  L 150.29 84.75"
/>
<path stroke="#5d5c5d" vector-effect="non-scaling-stroke" d="
  M 191.04 84.50
  L 191.02 88.26
  Q 191.02 88.75 191.50 88.75
  L 200.37 88.75
  Q 200.94 88.75 200.94 88.19
  L 200.94 87.06
  Q 200.94 86.50 200.37 86.50
  L 195.26 86.50
  Q 194.78 86.50 194.76 86.02
  L 194.71 84.50"
/>
<path stroke="#807f7e" vector-effect="non-scaling-stroke" d="
  M 194.71 84.50
  Q 197.03 83.58 199.59 84.15
  Q 200.32 84.32 200.41 83.58
  L 200.53 82.64
  Q 200.61 81.99 199.96 82.00
  C 198.70 82.00 193.80 82.85 194.83 80.23
  Q 195.02 79.75 195.53 79.75
  L 200.14 79.75
  Q 200.78 79.75 200.76 79.11
  L 200.73 78.25
  Q 200.70 77.50 199.94 77.50
  L 191.71 77.50
  Q 191.04 77.50 191.04 78.17
  L 191.04 84.50"
/>
<path stroke="#dddbdb" vector-effect="non-scaling-stroke" d="
  M 194.71 84.50
  L 191.04 84.50"
/>
<path stroke="#7f4204" vector-effect="non-scaling-stroke" d="
  M 109.66 96.83
  A 0.32 0.32 0.0 0 1 110.01 97.22
  L 107.99 106.21
  A 0.32 0.32 0.0 0 0 108.30 106.60
  L 113.54 106.60
  A 0.32 0.32 0.0 0 0 113.86 106.34
  L 115.48 97.01
  A 0.32 0.32 0.0 0 1 115.80 96.75
  L 118.02 96.75
  A 0.32 0.32 0.0 0 0 118.34 96.48
  L 118.91 92.67
  A 0.32 0.32 0.0 0 0 118.60 92.30
  L 108.99 92.34
  A 0.32 0.32 0.0 0 0 108.69 92.56
  L 107.37 96.65
  A 0.32 0.32 0.0 0 0 107.71 97.06
  L 109.66 96.83"
/>
<path stroke="#7f4204" vector-effect="non-scaling-stroke" d="
  M 132.5832 93.9500
  A 8.18 6.75 -43.3 0 0 122.0007 94.6475
  A 8.18 6.75 -43.3 0 0 120.6768 105.1700
  A 8.18 6.75 -43.3 0 0 131.2593 104.4725
  A 8.18 6.75 -43.3 0 0 132.5832 93.9500"
/>
<path stroke="#7f4204" vector-effect="non-scaling-stroke" d="
  M 149.3769 93.9781
  A 8.20 6.74 -42.9 0 0 138.7819 94.6227
  A 8.20 6.74 -42.9 0 0 137.3631 105.1419
  A 8.20 6.74 -42.9 0 0 147.9581 104.4973
  A 8.20 6.74 -42.9 0 0 149.3769 93.9781"
/>
<path stroke="#7f4204" vector-effect="non-scaling-stroke" d="
  M 158.48 102.24
  A 0.38 0.38 0.0 0 1 158.05 101.78
  L 160.10 92.84
  A 0.38 0.38 0.0 0 0 159.73 92.38
  L 154.79 92.38
  A 0.38 0.38 0.0 0 0 154.41 92.69
  L 151.95 106.15
  A 0.38 0.38 0.0 0 0 152.32 106.59
  L 161.76 106.70
  A 0.38 0.38 0.0 0 0 162.13 106.42
  L 163.33 102.06
  A 0.38 0.38 0.0 0 0 162.90 101.59
  L 158.48 102.24"
/>
<path stroke="#7f4204" vector-effect="non-scaling-stroke" d="
  M 173.07 92.26
  C 170.12 92.17 166.25 94.29 166.51 97.82
  C 166.71 100.56 169.00 101.15 164.77 102.90
  Q 164.31 103.09 164.46 103.56
  L 165.61 107.19
  Q 165.80 107.78 166.39 107.63
  C 171.02 106.46 174.50 104.11 172.96 98.81
  Q 172.62 97.67 173.65 97.08
  L 174.66 96.50
  Q 175.25 96.16 174.78 95.68
  Q 173.65 94.50 173.69 92.91
  Q 173.71 92.28 173.07 92.26"
/>
<path stroke="#dddbdb" vector-effect="non-scaling-stroke" d="
  M 174.04 83.25
  Q 174.23 85.15 172.79 85.75"
/>
<path stroke="#dddbdb" vector-effect="non-scaling-stroke" d="
  M 170.50 82.79
  Q 168.67 82.67 167.04 81.75"
/>
<path stroke="#dddbdb" vector-effect="non-scaling-stroke" d="
  M 177.96 84.75
  Q 176.83 84.88 176.52 84.02
  Q 176.37 83.63 175.97 83.51
  L 175.04 83.25"
/>
<path stroke="#7f4204" vector-effect="non-scaling-stroke" d="
  M 128.2102 98.1530
  A 2.15 1.79 -42.3 0 0 125.4153 98.2761
  A 2.15 1.79 -42.3 0 0 125.0298 101.0470
  A 2.15 1.79 -42.3 0 0 127.8247 100.9239
  A 2.15 1.79 -42.3 0 0 128.2102 98.1530"
/>
<path stroke="#7f4204" vector-effect="non-scaling-stroke" d="
  M 144.9973 98.1865
  A 2.15 1.79 -40.4 0 0 142.1999 98.2168
  A 2.15 1.79 -40.4 0 0 141.7227 100.9735
  A 2.15 1.79 -40.4 0 0 144.5201 100.9432
  A 2.15 1.79 -40.4 0 0 144.9973 98.1865"
/>
</g>
<path fill="#000000" d="
  M 177.89 31.92
  L 178.78 30.42
  Q 179.06 29.96 179.59 30.02
  L 187.06 30.87
  A 0.88 0.88 0.0 0 0 188.02 30.21
  L 191.62 15.52
  A 0.98 0.96 1.3 0 1 192.38 14.81
  C 200.99 13.12 218.81 11.74 225.98 18.04
  Q 232.36 23.64 227.09 33.71
  Q 226.69 34.49 227.54 34.67
  L 232.97 35.83
  Q 233.53 35.95 233.68 36.50
  L 235.38 42.76
  A 0.33 0.33 0.0 0 0 236.03 42.72
  L 237.70 32.21
  Q 237.92 30.79 239.35 30.61
  L 257.44 28.27
  Q 258.07 28.18 258.20 27.56
  L 259.54 20.74
  Q 259.66 20.12 260.28 20.05
  L 280.75 17.45
  Q 281.40 17.37 281.20 17.99
  Q 277.27 29.68 276.98 42.04
  Q 276.96 42.67 277.58 42.56
  L 297.98 39.02
  A 0.57 0.57 0.0 0 1 298.62 39.76
  L 292.84 56.95
  A 1.36 1.35 4.6 0 1 291.77 57.85
  L 274.03 60.61
  Q 273.60 60.68 273.46 61.09
  L 271.21 67.87
  A 0.68 0.64 3.4 0 1 270.69 68.31
  L 235.94 73.94
  A 1.19 1.18 -5.8 0 1 234.56 72.82
  L 234.46 69.91
  Q 234.44 69.33 233.86 69.38
  L 207.63 71.42
  Q 206.71 71.49 206.95 70.60
  L 208.18 65.94
  A 0.37 0.36 -5.8 0 0 207.66 65.52
  Q 196.62 71.04 184.49 73.46
  A 0.75 0.75 0.0 0 1 183.62 72.92
  Q 182.36 68.18 182.97 63.31
  Q 183.04 62.83 182.63 63.10
  Q 181.40 63.93 179.32 64.33
  C 171.61 65.79 159.24 67.87 148.72 71.77
  Q 132.96 77.60 122.33 63.28
  A 0.45 0.45 0.0 0 0 121.59 63.30
  C 116.24 71.56 105.93 70.95 99.03 64.64
  Q 98.64 64.27 98.13 64.46
  C 92.40 66.54 87.04 68.31 80.83 69.52
  Q 74.66 70.72 68.26 72.09
  A 0.84 0.84 0.0 0 1 67.29 71.01
  L 69.90 62.94
  Q 70.09 62.35 69.51 62.57
  L 37.19 74.75
  A 0.36 0.36 0.0 0 1 36.71 74.35
  L 39.62 57.79
  A 0.22 0.22 0.0 0 0 39.25 57.60
  C 31.22 66.07 20.25 74.05 8.77 76.80
  A 0.75 0.75 0.0 0 1 7.85 76.16
  L 0.99 18.01
  Q 0.86 16.84 1.85 16.20
  C 15.38 7.61 35.80 -0.36 52.04 4.67
  C 61.99 7.75 60.86 16.91 58.82 24.97
  A 0.62 0.61 0.5 0 0 59.56 25.72
  C 67.36 23.89 77.87 24.12 81.37 32.95
  A 0.62 0.60 76.5 0 0 81.99 33.34
  L 97.11 32.06
  Q 97.70 32.01 98.15 31.64
  Q 108.16 23.38 120.72 27.76
  Q 121.69 28.09 122.29 27.25
  C 132.76 12.51 151.94 14.06 160.22 29.78
  Q 160.56 30.41 161.11 29.96
  L 161.72 29.46
  Q 162.15 29.11 162.69 29.13
  L 176.58 29.74
  Q 177.21 29.76 177.22 30.39
  L 177.26 31.79
  Q 177.27 32.01 177.49 32.00
  Q 177.62 32.00 177.75 32.00
  Q 177.84 32.00 177.89 31.92
  Z
  M 6.75 26.04
  L 7.23 29.17
  L 8.29 39.25
  L 9.66 49.58
  L 10.25 54.04
  L 12.26 69.65
  Q 12.45 71.17 13.83 70.49
  Q 26.32 64.34 36.04 55.00
  L 41.25 48.93
  L 43.71 45.75
  L 49.79 36.50
  L 51.71 32.75
  Q 53.53 29.49 54.14 26.09
  C 57.05 19.52 59.11 10.02 50.42 7.27
  C 36.68 2.93 18.29 10.14 6.17 17.66
  Q 5.76 17.92 5.82 18.40
  L 6.75 26.04
  Z
  M 192.46 30.00
  L 188.96 47.75
  L 188.25 52.96
  L 187.71 56.00
  L 187.30 68.01
  A 0.40 0.40 0.0 0 0 187.79 68.41
  Q 197.47 66.19 206.29 61.50
  C 210.94 59.41 216.85 54.53 215.54 48.75
  C 213.86 45.40 210.67 46.01 209.29 43.75
  Q 216.11 39.61 221.54 33.71
  L 224.33 29.65
  Q 226.43 25.60 224.26 20.92
  Q 210.52 14.82 195.67 18.21
  Q 195.25 18.31 195.15 18.72
  L 192.46 30.00
  Z
  M 140.5832 69.9800
  A 24.73 20.14 89.9 0 0 160.6800 45.2148
  A 24.73 20.14 89.9 0 0 140.4968 20.5200
  A 24.73 20.14 89.9 0 0 120.4000 45.2852
  A 24.73 20.14 89.9 0 0 140.5832 69.9800
  Z
  M 262.50 28.96
  L 261.96 32.00
  L 260.54 45.50
  L 259.98 51.68
  Q 259.93 52.24 260.50 52.17
  C 265.74 51.46 272.08 49.54 277.21 49.75
  L 275.39 56.19
  Q 275.23 56.75 275.80 56.64
  L 288.72 54.20
  Q 289.36 54.08 289.56 53.46
  L 291.21 48.50
  L 292.61 44.21
  Q 292.78 43.70 292.25 43.79
  L 273.25 47.02
  Q 272.28 47.19 272.25 46.19
  L 272.21 44.25
  L 273.46 32.00
  L 273.79 30.50
  L 275.39 22.28
  Q 275.48 21.82 275.01 21.87
  L 263.94 23.22
  A 1.07 1.07 0.0 0 0 263.00 24.17
  L 262.50 28.96
  Z
  M 52.71 40.25
  Q 49.35 45.33 45.99 50.41
  C 44.65 52.44 44.61 54.45 44.21 56.75
  L 42.48 67.78
  Q 42.43 68.14 42.79 68.12
  C 47.15 67.89 48.65 65.61 51.98 64.65
  Q 52.45 64.51 52.65 64.07
  Q 53.42 62.30 53.01 60.42
  Q 52.91 59.95 53.12 59.51
  Q 53.95 57.82 53.79 56.00
  Q 55.70 53.65 58.79 54.00
  L 59.04 61.76
  Q 59.06 62.30 59.59 62.17
  Q 60.39 61.97 60.79 61.63
  L 65.50 59.96
  Q 66.38 60.05 67.06 59.67
  Q 67.54 59.41 67.44 58.87
  L 65.79 50.50
  L 65.79 49.75
  Q 69.70 47.10 72.50 43.29
  C 75.01 40.82 78.39 36.06 76.43 32.44
  C 73.37 26.81 63.15 28.26 57.98 29.71
  Q 57.52 29.84 57.32 30.28
  L 52.71 40.25
  Z
  M 98.61 38.95
  L 102.00 54.29
  L 103.58 62.64
  A 2.03 2.01 -83.4 0 0 104.72 64.09
  Q 114.59 68.62 119.01 59.29
  Q 119.24 58.80 119.10 58.28
  L 117.25 51.71
  L 116.70 45.26
  Q 116.66 44.77 116.17 44.73
  L 109.65 44.31
  Q 109.00 44.27 109.00 44.92
  L 109.00 50.80
  Q 109.00 51.52 109.70 51.33
  Q 112.48 50.56 113.82 52.54
  C 112.96 58.71 106.90 57.53 104.79 53.50
  Q 102.38 45.02 109.04 39.50
  Q 112.99 37.57 116.53 39.91
  Q 116.83 40.11 116.94 39.77
  L 119.44 31.81
  Q 119.56 31.42 119.18 31.28
  Q 105.03 26.06 98.61 38.95
  Z
  M 163.96 40.00
  L 164.29 48.25
  L 163.71 52.25
  Q 162.31 58.79 158.45 64.28
  Q 157.98 64.94 158.77 64.77
  L 163.08 63.85
  Q 163.69 63.72 163.80 63.10
  L 165.71 52.00
  L 166.30 50.17
  Q 166.56 49.38 166.98 50.10
  Q 167.89 51.67 168.12 53.84
  L 169.71 61.59
  Q 169.81 62.10 170.33 62.06
  C 174.58 61.74 180.26 61.36 179.96 55.50
  Q 182.11 52.26 182.82 48.92
  C 185.60 44.99 185.80 39.69 186.90 35.10
  Q 187.04 34.51 186.44 34.48
  L 181.63 34.18
  Q 181.04 34.15 180.76 34.65
  L 174.52 45.69
  Q 173.29 45.36 173.21 44.25
  L 172.88 33.71
  Q 172.86 33.03 172.18 33.03
  L 164.78 32.95
  Q 164.30 32.95 164.13 33.39
  Q 162.86 36.66 163.96 40.00
  Z
  M 241.21 37.25
  L 240.25 43.96
  C 239.01 51.62 238.73 54.45 240.71 61.00
  L 242.75 68.27
  Q 242.91 68.87 243.52 68.77
  L 267.04 64.87
  Q 267.60 64.78 267.78 64.25
  L 271.07 54.84
  A 0.29 0.29 0.0 0 0 270.75 54.46
  L 250.75 57.79
  C 249.69 54.53 251.72 45.45 252.00 41.54
  L 252.54 38.25
  L 253.59 33.04
  Q 253.70 32.49 253.14 32.56
  L 242.31 33.94
  Q 241.66 34.02 241.57 34.67
  L 241.21 37.25
  Z
  M 78.28 51.75
  L 74.24 66.03
  Q 74.15 66.34 74.47 66.31
  L 81.67 65.71
  Q 82.06 65.68 82.21 65.32
  L 84.14 60.68
  Q 84.34 60.21 84.84 60.06
  L 89.14 58.76
  Q 89.79 58.56 89.85 59.24
  L 90.08 61.90
  A 0.84 0.84 0.0 0 0 91.16 62.63
  L 96.73 60.91
  Q 98.37 60.41 98.08 58.71
  L 95.96 46.50
  L 94.06 36.70
  Q 93.93 36.03 93.25 36.08
  L 83.10 36.90
  Q 82.51 36.94 82.35 37.51
  L 78.28 51.75
  Z
  M 219.96 53.25
  Q 217.87 58.30 213.70 61.86
  Q 213.27 62.23 213.26 62.79
  Q 213.21 65.08 211.99 66.97
  Q 211.55 67.65 212.34 67.51
  L 221.59 65.86
  Q 222.17 65.76 222.16 65.18
  L 222.11 62.17
  Q 222.10 61.65 222.59 61.47
  Q 224.95 60.59 227.36 61.31
  Q 227.84 61.46 228.06 61.91
  Q 228.83 63.51 229.35 65.21
  Q 229.50 65.68 229.95 65.88
  C 231.95 66.75 233.52 64.73 235.66 65.41
  A 0.87 0.87 0.0 0 0 236.77 64.35
  L 231.89 46.22
  L 230.07 39.44
  Q 229.95 38.99 229.49 38.90
  L 223.98 37.88
  Q 223.49 37.79 223.12 38.13
  L 217.55 43.17
  A 0.80 0.80 0.0 0 0 217.54 44.35
  Q 221.35 47.90 219.96 53.25
  Z
  M 71.94 50.08
  Q 69.22 52.73 71.45 56.35
  Q 71.75 56.85 71.94 56.29
  L 74.77 48.04
  Q 74.99 47.40 74.38 47.70
  C 73.44 48.15 72.39 49.64 71.94 50.08
  Z"
/>
<path fill="#fefd2a" d="
  M 54.14 26.09
  Q 53.32 24.83 53.40 23.31
  Q 53.42 22.72 52.83 22.66
  Q 46.16 22.05 39.58 23.31
  Q 39.06 23.41 39.01 23.94
  Q 38.90 25.23 37.79 25.75
  C 38.43 17.08 28.06 23.25 25.00 25.79
  L 23.79 26.75
  L 24.37 23.55
  Q 24.49 22.90 23.83 22.90
  L 8.53 22.73
  Q 7.78 22.72 7.95 23.45
  Q 8.43 25.42 6.75 26.04
  L 5.82 18.40
  Q 5.76 17.92 6.17 17.66
  C 18.29 10.14 36.68 2.93 50.42 7.27
  C 59.11 10.02 57.05 19.52 54.14 26.09
  Z"
/>
<path fill="#fefd2a" d="
  M 224.26 20.92
  C 223.76 22.73 222.75 23.13 221.74 21.82
  Q 221.42 21.40 221.00 21.09
  Q 219.50 20.00 217.65 20.26
  Q 217.16 20.33 216.80 20.01
  C 214.57 18.07 200.85 18.98 197.54 19.33
  Q 197.03 19.38 196.77 19.83
  C 194.85 23.10 195.55 26.89 193.75 29.79
  L 192.46 30.00
  L 195.15 18.72
  Q 195.25 18.31 195.67 18.21
  Q 210.52 14.82 224.26 20.92
  Z"
/>
<path fill="#fed71d" d="
  M 224.26 20.92
  Q 226.43 25.60 224.33 29.65
  Q 223.08 29.52 223.39 27.68
  Q 223.48 27.12 222.92 27.02
  Q 215.51 25.77 208.65 28.13
  L 204.73 28.50
  Q 204.23 28.54 204.09 29.03
  L 202.23 35.72
  Q 202.06 36.34 202.69 36.47
  Q 203.02 36.53 203.46 36.25
  L 204.04 37.25
  Q 202.71 37.65 201.46 37.09
  Q 201.03 36.90 200.56 36.90
  L 193.12 36.85
  Q 192.67 36.84 192.71 36.40
  L 193.13 31.51
  Q 193.17 31.07 193.43 30.72
  Q 193.74 30.31 193.75 29.79
  C 195.55 26.89 194.85 23.10 196.77 19.83
  Q 197.03 19.38 197.54 19.33
  C 200.85 18.98 214.57 18.07 216.80 20.01
  Q 217.16 20.33 217.65 20.26
  Q 219.50 20.00 221.00 21.09
  Q 221.42 21.40 221.74 21.82
  C 222.75 23.13 223.76 22.73 224.26 20.92
  Z"
/>
<path fill="#fffefc" d="
  M 140.5832 69.9800
  A 24.73 20.14 89.9 0 1 120.4000 45.2852
  A 24.73 20.14 89.9 0 1 140.4968 20.5200
  A 24.73 20.14 89.9 0 1 160.6800 45.2148
  A 24.73 20.14 89.9 0 1 140.5832 69.9800
  Z
  M 140.7699 66.2088
  A 21.00 17.24 89.4 0 0 157.7891 45.0295
  A 21.00 17.24 89.4 0 0 140.3301 24.2112
  A 21.00 17.24 89.4 0 0 123.3109 45.3905
  A 21.00 17.24 89.4 0 0 140.7699 66.2088
  Z"
/>
<path fill="#000000" d="
  M 37.79 25.75
  L 37.25 28.21
  L 34.21 33.75
  L 26.75 42.46
  Q 26.51 42.52 26.25 42.80
  Q 25.76 43.33 25.75 42.61
  L 25.71 39.50
  L 25.00 25.79
  C 28.06 23.25 38.43 17.08 37.79 25.75
  Z
  M 29.30 34.73
  C 31.01 31.90 32.95 29.39 33.69 25.96
  A 0.61 0.61 0.0 0 0 32.82 25.29
  L 28.82 27.29
  Q 28.25 27.57 28.28 28.21
  L 28.58 34.54
  Q 28.64 35.82 29.30 34.73
  Z"
/>
<path fill="#fed71d" d="
  M 273.79 30.50
  Q 272.86 27.87 272.97 24.82
  Q 272.99 24.28 272.45 24.22
  C 269.54 23.87 263.00 23.28 264.37 27.68
  Q 264.54 28.21 264.02 28.40
  L 262.50 28.96
  L 263.00 24.17
  A 1.07 1.07 0.0 0 1 263.94 23.22
  L 275.01 21.87
  Q 275.48 21.82 275.39 22.28
  L 273.79 30.50
  Z"
/>
<path fill="#fed71d" d="
  M 54.14 26.09
  Q 53.53 29.49 51.71 32.75
  Q 51.48 32.82 51.29 32.76
  Q 50.81 32.61 50.94 32.13
  L 52.09 27.83
  Q 52.24 27.28 51.69 27.12
  C 47.89 26.01 44.11 27.78 40.04 27.22
  Q 39.52 27.14 39.23 27.59
  Q 38.53 28.73 37.25 28.21
  L 37.79 25.75
  Q 38.90 25.23 39.01 23.94
  Q 39.06 23.41 39.58 23.31
  Q 46.16 22.05 52.83 22.66
  Q 53.42 22.72 53.40 23.31
  Q 53.32 24.83 54.14 26.09
  Z"
/>
<path fill="#fed71d" d="
  M 23.79 26.75
  Q 23.48 27.49 23.48 28.27
  Q 23.49 28.78 22.98 28.79
  L 7.23 29.17
  L 6.75 26.04
  Q 8.43 25.42 7.95 23.45
  Q 7.78 22.72 8.53 22.73
  L 23.83 22.90
  Q 24.49 22.90 24.37 23.55
  L 23.79 26.75
  Z"
/>
<path fill="#feb514" d="
  M 273.79 30.50
  L 273.46 32.00
  L 273.19 33.07
  Q 273.06 33.59 272.68 33.21
  C 271.07 31.61 264.39 32.43 261.96 32.00
  L 262.50 28.96
  L 264.02 28.40
  Q 264.54 28.21 264.37 27.68
  C 263.00 23.28 269.54 23.87 272.45 24.22
  Q 272.99 24.28 272.97 24.82
  Q 272.86 27.87 273.79 30.50
  Z"
/>
<path fill="#fffe91" d="
  M 140.7699 66.2088
  A 21.00 17.24 89.4 0 1 123.3109 45.3905
  A 21.00 17.24 89.4 0 1 140.3301 24.2112
  A 21.00 17.24 89.4 0 1 157.7891 45.0295
  A 21.00 17.24 89.4 0 1 140.7699 66.2088
  Z
  M 139.54 33.00
  C 138.72 31.28 135.19 33.44 133.83 33.93
  Q 133.37 34.10 133.21 34.57
  L 131.10 40.90
  L 129.04 41.01
  Q 127.52 41.09 128.66 41.59
  Q 129.05 41.76 129.25 42.04
  C 125.41 43.92 127.80 47.23 129.79 49.63
  Q 130.16 50.07 130.08 50.64
  L 129.59 54.19
  Q 129.53 54.63 129.91 54.87
  L 133.21 57.00
  Q 133.20 57.20 132.99 57.40
  Q 131.73 58.56 133.58 57.73
  L 134.00 57.54
  L 140.33 59.89
  Q 140.81 60.07 141.27 59.84
  Q 144.20 58.33 147.50 57.96
  L 147.97 58.05
  Q 148.36 58.13 148.27 57.74
  L 148.00 56.54
  Q 150.23 53.71 150.26 50.25
  Q 150.26 49.72 150.63 49.34
  Q 153.71 46.10 152.26 41.91
  L 152.74 41.23
  Q 153.07 40.76 152.52 40.93
  Q 152.06 41.08 151.75 40.96
  Q 151.78 38.25 149.28 37.79
  Q 148.79 37.70 148.52 37.29
  Q 145.99 33.56 141.46 33.00
  L 140.87 30.90
  Q 140.56 29.78 140.21 30.89
  L 139.54 33.00
  Z"
/>
<path fill="#fea10e" d="
  M 25.00 25.79
  L 25.71 39.50
  Q 25.52 39.85 25.01 39.91
  Q 24.76 39.94 24.64 39.71
  L 23.94 38.30
  Q 23.79 38.00 23.45 38.04
  C 18.61 38.62 14.02 37.93 9.17 38.65
  Q 8.83 38.70 8.59 38.95
  L 8.29 39.25
  L 7.23 29.17
  L 22.98 28.79
  Q 23.49 28.78 23.48 28.27
  Q 23.48 27.49 23.79 26.75
  L 25.00 25.79
  Z"
/>
<path fill="#feb514" d="
  M 51.71 32.75
  L 49.79 36.50
  Q 49.44 35.45 49.74 34.38
  Q 49.84 34.03 49.48 34.12
  Q 48.65 34.33 48.02 33.82
  Q 47.65 33.52 47.18 33.53
  L 34.21 33.75
  L 37.25 28.21
  Q 38.53 28.73 39.23 27.59
  Q 39.52 27.14 40.04 27.22
  C 44.11 27.78 47.89 26.01 51.69 27.12
  Q 52.24 27.28 52.09 27.83
  L 50.94 32.13
  Q 50.81 32.61 51.29 32.76
  Q 51.48 32.82 51.71 32.75
  Z"
/>
<path fill="#feb514" d="
  M 224.33 29.65
  L 221.54 33.71
  Q 219.14 34.30 216.32 36.52
  A 0.96 0.94 -47.6 0 1 215.21 36.58
  Q 213.45 35.45 211.67 36.49
  A 1.34 1.34 0.0 0 1 209.98 36.21
  L 209.33 35.45
  Q 208.98 35.05 208.50 35.27
  L 204.04 37.25
  L 203.46 36.25
  C 206.42 35.03 211.86 32.17 208.65 28.13
  Q 215.51 25.77 222.92 27.02
  Q 223.48 27.12 223.39 27.68
  Q 223.08 29.52 224.33 29.65
  Z"
/>
<path fill="#fea10e" d="
  M 72.50 43.29
  L 71.00 44.09
  Q 69.67 44.79 70.68 43.67
  L 72.71 41.41
  Q 73.00 41.08 73.00 40.64
  L 73.00 40.00
  Q 73.00 39.42 72.43 39.40
  L 67.47 39.21
  Q 67.06 39.20 66.85 39.55
  L 66.69 39.82
  Q 66.42 40.27 66.02 39.94
  Q 65.54 39.55 65.42 39.02
  C 65.13 35.47 58.72 37.47 56.34 37.87
  Q 55.85 37.95 55.80 38.45
  L 55.21 44.50
  Q 53.74 43.99 53.98 42.56
  Q 54.07 42.04 53.76 41.63
  L 52.71 40.25
  L 57.32 30.28
  Q 57.52 29.84 57.98 29.71
  C 63.15 28.26 73.37 26.81 76.43 32.44
  C 78.39 36.06 75.01 40.82 72.50 43.29
  Z"
/>
<path fill="#000000" d="
  M 208.65 28.13
  C 211.86 32.17 206.42 35.03 203.46 36.25
  Q 203.02 36.53 202.69 36.47
  Q 202.06 36.34 202.23 35.72
  L 204.09 29.03
  Q 204.23 28.54 204.73 28.50
  L 208.65 28.13
  Z"
/>
<path fill="#fd8308" d="
  M 193.75 29.79
  Q 193.74 30.31 193.43 30.72
  Q 193.17 31.07 193.13 31.51
  L 192.71 36.40
  Q 192.67 36.84 193.12 36.85
  L 200.56 36.90
  Q 201.03 36.90 201.46 37.09
  Q 202.71 37.65 204.04 37.25
  L 208.50 35.27
  Q 208.98 35.05 209.33 35.45
  L 209.98 36.21
  A 1.34 1.34 0.0 0 0 211.67 36.49
  Q 213.45 35.45 215.21 36.58
  A 0.96 0.94 -47.6 0 0 216.32 36.52
  Q 219.14 34.30 221.54 33.71
  Q 216.11 39.61 209.29 43.75
  L 208.92 42.72
  Q 208.78 42.35 208.39 42.35
  L 191.76 42.34
  Q 191.15 42.34 191.01 42.93
  L 189.99 47.58
  Q 189.89 48.02 189.45 47.98
  Q 189.19 47.96 188.96 47.75
  L 192.46 30.00
  L 193.75 29.79
  Z"
/>
<path fill="#fea10e" d="
  M 109.04 39.50
  C 108.93 38.64 108.91 38.17 108.02 37.77
  Q 103.19 35.62 98.61 38.95
  Q 105.03 26.06 119.18 31.28
  Q 119.56 31.42 119.44 31.81
  L 116.94 39.77
  Q 116.83 40.11 116.53 39.91
  Q 112.99 37.57 109.04 39.50
  Z"
/>
<path fill="#000000" d="
  M 141.46 33.00
  L 143.14 40.33
  Q 143.28 40.92 143.88 40.93
  L 151.75 40.96
  Q 152.06 41.08 152.52 40.93
  Q 153.07 40.76 152.74 41.23
  L 152.26 41.91
  L 145.91 46.54
  Q 145.47 46.86 145.61 47.39
  L 148.00 56.54
  L 148.27 57.74
  Q 148.36 58.13 147.97 58.05
  L 147.50 57.96
  L 140.92 52.49
  Q 140.49 52.13 140.05 52.49
  L 134.00 57.54
  L 133.58 57.73
  Q 131.73 58.56 132.99 57.40
  Q 133.20 57.20 133.21 57.00
  L 135.28 47.36
  Q 135.40 46.81 134.96 46.46
  L 129.25 42.04
  Q 129.05 41.76 128.66 41.59
  Q 127.52 41.09 129.04 41.01
  L 131.10 40.90
  L 137.07 40.92
  Q 137.65 40.93 137.78 40.36
  L 139.54 33.00
  L 140.21 30.89
  Q 140.56 29.78 140.87 30.90
  L 141.46 33.00
  Z
  M 144.00 42.25
  A 2.50 2.49 84.3 0 1 141.56 40.24
  L 140.93 37.05
  Q 140.69 35.82 140.17 36.96
  Q 139.49 38.43 139.52 40.11
  A 2.11 2.11 0.0 0 1 137.41 42.25
  L 132.97 42.25
  Q 131.50 42.25 132.69 43.12
  L 135.76 45.37
  A 2.39 2.39 0.0 0 1 136.69 47.82
  L 135.43 53.48
  A 0.49 0.49 0.0 0 0 136.21 53.97
  L 140.19 50.81
  Q 140.62 50.47 141.03 50.83
  L 144.73 54.04
  A 0.57 0.56 -76.8 0 0 145.64 53.47
  L 144.06 47.27
  A 1.32 1.31 65.1 0 1 144.56 45.88
  L 148.34 43.17
  Q 149.61 42.25 148.04 42.25
  L 144.00 42.25
  Z"
/>
<path fill="#fd8308" d="
  M 261.96 32.00
  C 264.39 32.43 271.07 31.61 272.68 33.21
  Q 273.06 33.59 273.19 33.07
  L 273.46 32.00
  L 272.21 44.25
  Q 267.92 44.85 263.62 44.29
  Q 263.11 44.22 262.75 44.60
  Q 261.86 45.56 260.54 45.50
  L 261.96 32.00
  Z"
/>
<path fill="#fefeb1" d="
  M 139.54 33.00
  L 137.78 40.36
  Q 137.65 40.93 137.07 40.92
  L 131.10 40.90
  L 133.21 34.57
  Q 133.37 34.10 133.83 33.93
  C 135.19 33.44 138.72 31.28 139.54 33.00
  Z"
/>
<path fill="#fefeb1" d="
  M 151.75 40.96
  L 143.88 40.93
  Q 143.28 40.92 143.14 40.33
  L 141.46 33.00
  Q 145.99 33.56 148.52 37.29
  Q 148.79 37.70 149.28 37.79
  Q 151.78 38.25 151.75 40.96
  Z"
/>
<path fill="#fea10e" d="
  M 173.21 44.25
  L 171.75 44.21
  Q 170.81 39.77 171.54 35.17
  Q 171.64 34.55 171.01 34.54
  L 166.61 34.48
  Q 166.03 34.47 165.62 34.89
  Q 164.74 35.79 165.00 37.04
  Q 165.10 37.50 164.70 37.77
  Q 163.60 38.51 163.96 40.00
  Q 162.86 36.66 164.13 33.39
  Q 164.30 32.95 164.78 32.95
  L 172.18 33.03
  Q 172.86 33.03 172.88 33.71
  L 173.21 44.25
  Z"
/>
<path fill="#fea10e" d="
  M 252.54 38.25
  L 251.91 35.22
  A 1.09 1.09 0.0 0 0 250.71 34.35
  L 243.58 35.21
  Q 243.14 35.26 243.05 35.70
  Q 242.70 37.31 241.21 37.25
  L 241.57 34.67
  Q 241.66 34.02 242.31 33.94
  L 253.14 32.56
  Q 253.70 32.49 253.59 33.04
  L 252.54 38.25
  Z"
/>
<path fill="#fd8308" d="
  M 49.79 36.50
  L 43.71 45.75
  Q 43.32 43.87 44.63 42.32
  Q 45.05 41.82 44.53 41.42
  C 41.70 39.28 34.32 40.63 30.68 40.81
  Q 30.17 40.83 29.89 41.26
  Q 28.73 43.04 26.75 42.46
  L 34.21 33.75
  L 47.18 33.53
  Q 47.65 33.52 48.02 33.82
  Q 48.65 34.33 49.48 34.12
  Q 49.84 34.03 49.74 34.38
  Q 49.44 35.45 49.79 36.50
  Z"
/>
<path fill="#fd8308" d="
  M 182.82 48.92
  Q 182.46 47.77 183.06 46.49
  C 183.59 45.34 183.76 44.32 183.28 43.29
  Q 183.07 42.84 182.57 42.81
  Q 180.15 42.62 177.86 43.57
  Q 177.35 43.78 177.15 44.29
  Q 176.36 46.29 174.52 45.69
  L 180.76 34.65
  Q 181.04 34.15 181.63 34.18
  L 186.44 34.48
  Q 187.04 34.51 186.90 35.10
  C 185.80 39.69 185.60 44.99 182.82 48.92
  Z"
/>
<path fill="#fd8308" d="
  M 252.54 38.25
  L 252.00 41.54
  L 251.35 43.40
  Q 251.17 43.91 250.65 43.76
  Q 245.43 42.32 240.25 43.96
  L 241.21 37.25
  Q 242.70 37.31 243.05 35.70
  Q 243.14 35.26 243.58 35.21
  L 250.71 34.35
  A 1.09 1.09 0.0 0 1 251.91 35.22
  L 252.54 38.25
  Z"
/>
<path fill="#fd8308" d="
  M 171.75 44.21
  L 166.56 43.95
  Q 166.09 43.93 166.10 44.40
  L 166.19 47.06
  Q 166.20 47.45 165.81 47.48
  Q 164.85 47.57 164.29 48.25
  L 163.96 40.00
  Q 163.60 38.51 164.70 37.77
  Q 165.10 37.50 165.00 37.04
  Q 164.74 35.79 165.62 34.89
  Q 166.03 34.47 166.61 34.48
  L 171.01 34.54
  Q 171.64 34.55 171.54 35.17
  Q 170.81 39.77 171.75 44.21
  Z"
/>
<path fill="#fe6703" d="
  M 95.96 46.50
  Q 95.59 47.36 95.83 48.28
  Q 95.95 48.76 95.49 48.92
  Q 93.73 49.54 91.84 48.67
  Q 91.36 48.45 90.84 48.55
  L 87.82 49.12
  L 87.46 47.77
  Q 87.23 46.87 86.98 47.76
  L 85.71 52.25
  Q 84.81 50.08 86.15 48.20
  Q 86.46 47.77 86.08 47.39
  Q 84.01 45.27 81.27 46.81
  Q 80.74 47.11 80.72 47.71
  Q 80.62 50.46 78.28 51.75
  L 82.35 37.51
  Q 82.51 36.94 83.10 36.90
  L 93.25 36.08
  Q 93.93 36.03 94.06 36.70
  L 95.96 46.50
  Z"
/>
<path fill="#fc1002" d="
  M 144.00 42.25
  L 148.04 42.25
  Q 149.61 42.25 148.34 43.17
  L 144.56 45.88
  A 1.32 1.31 65.1 0 0 144.06 47.27
  L 145.64 53.47
  A 0.57 0.56 -76.8 0 1 144.73 54.04
  L 141.03 50.83
  Q 140.62 50.47 140.19 50.81
  L 136.21 53.97
  A 0.49 0.49 0.0 0 1 135.43 53.48
  L 136.69 47.82
  A 2.39 2.39 0.0 0 0 135.76 45.37
  L 132.69 43.12
  Q 131.50 42.25 132.97 42.25
  L 137.41 42.25
  A 2.11 2.11 0.0 0 0 139.52 40.11
  Q 139.49 38.43 140.17 36.96
  Q 140.69 35.82 140.93 37.05
  L 141.56 40.24
  A 2.50 2.49 84.3 0 0 144.00 42.25
  Z"
/>
<path fill="#000000" d="
  M 65.42 39.02
  Q 61.47 43.71 55.75 45.54
  L 55.21 44.50
  L 55.80 38.45
  Q 55.85 37.95 56.34 37.87
  C 58.72 37.47 65.13 35.47 65.42 39.02
  Z"
/>
<path fill="#fd8308" d="
  M 109.04 39.50
  Q 102.38 45.02 104.79 53.50
  Q 103.55 54.40 102.00 54.29
  L 98.61 38.95
  Q 103.19 35.62 108.02 37.77
  C 108.91 38.17 108.93 38.64 109.04 39.50
  Z"
/>
<path fill="#fe6703" d="
  M 25.71 39.50
  L 25.75 42.61
  Q 25.76 43.33 26.25 42.80
  Q 26.51 42.52 26.75 42.46
  Q 28.73 43.04 29.89 41.26
  Q 30.17 40.83 30.68 40.81
  C 34.32 40.63 41.70 39.28 44.53 41.42
  Q 45.05 41.82 44.63 42.32
  Q 43.32 43.87 43.71 45.75
  L 41.25 48.93
  L 38.47 50.89
  Q 38.09 51.17 37.84 50.76
  Q 36.86 49.15 35.66 49.11
  Q 29.30 48.85 9.66 49.58
  L 8.29 39.25
  L 8.59 38.95
  Q 8.83 38.70 9.17 38.65
  C 14.02 37.93 18.61 38.62 23.45 38.04
  Q 23.79 38.00 23.94 38.30
  L 24.64 39.71
  Q 24.76 39.94 25.01 39.91
  Q 25.52 39.85 25.71 39.50
  Z"
/>
<path fill="#fe6703" d="
  M 231.89 46.22
  L 231.77 51.17
  Q 231.76 51.81 231.11 51.79
  L 227.15 51.65
  Q 226.85 51.64 226.73 51.91
  L 226.04 53.50
  L 224.90 48.95
  Q 224.58 47.70 224.37 48.97
  L 223.71 53.00
  L 222.90 54.83
  Q 222.68 55.33 222.16 55.16
  Q 221.12 54.83 220.49 55.80
  Q 220.23 56.20 220.18 55.72
  L 219.96 53.25
  Q 221.35 47.90 217.54 44.35
  A 0.80 0.80 0.0 0 1 217.55 43.17
  L 223.12 38.13
  Q 223.49 37.79 223.98 37.88
  L 229.49 38.90
  Q 229.95 38.99 230.07 39.44
  L 231.89 46.22
  Z"
/>
<path fill="#fe6703" d="
  M 65.42 39.02
  Q 65.54 39.55 66.02 39.94
  Q 66.42 40.27 66.69 39.82
  L 66.85 39.55
  Q 67.06 39.20 67.47 39.21
  L 72.43 39.40
  Q 73.00 39.42 73.00 40.00
  L 73.00 40.64
  Q 73.00 41.08 72.71 41.41
  L 70.68 43.67
  Q 69.67 44.79 71.00 44.09
  L 72.50 43.29
  Q 69.70 47.10 65.79 49.75
  Q 66.02 48.62 67.01 48.26
  Q 67.41 48.12 67.66 47.77
  Q 68.07 47.19 67.93 46.57
  Q 67.70 45.62 67.35 46.53
  Q 66.51 48.68 65.02 47.61
  Q 64.55 47.27 63.97 47.26
  Q 61.17 47.24 58.61 46.20
  Q 58.05 45.97 57.69 46.46
  Q 57.22 47.12 56.36 46.98
  Q 55.88 46.90 55.76 46.43
  Q 55.65 46.00 55.75 45.54
  Q 61.47 43.71 65.42 39.02
  Z"
/>
<path fill="#fd4102" d="
  M 52.71 40.25
  L 53.76 41.63
  Q 54.07 42.04 53.98 42.56
  Q 53.74 43.99 55.21 44.50
  L 55.75 45.54
  Q 55.65 46.00 55.76 46.43
  Q 55.88 46.90 56.36 46.98
  Q 57.22 47.12 57.69 46.46
  Q 58.05 45.97 58.61 46.20
  Q 61.17 47.24 63.97 47.26
  Q 64.55 47.27 65.02 47.61
  Q 66.51 48.68 67.35 46.53
  Q 67.70 45.62 67.93 46.57
  Q 68.07 47.19 67.66 47.77
  Q 67.41 48.12 67.01 48.26
  Q 66.02 48.62 65.79 49.75
  L 65.79 50.50
  L 65.40 56.02
  Q 65.36 56.52 65.57 56.97
  Q 66.28 58.44 65.50 59.96
  L 60.79 61.63
  Q 59.95 58.39 60.30 55.07
  Q 60.37 54.50 59.79 54.53
  Q 59.12 54.56 58.79 54.00
  Q 55.70 53.65 53.79 56.00
  L 53.74 55.49
  Q 53.69 54.94 53.30 55.33
  L 53.01 55.61
  Q 52.72 55.90 52.46 55.59
  C 51.28 54.18 48.27 54.91 46.65 55.04
  Q 46.12 55.08 45.88 55.56
  L 44.41 58.48
  Q 44.27 58.74 44.26 58.45
  L 44.21 56.75
  C 44.61 54.45 44.65 52.44 45.99 50.41
  Q 49.35 45.33 52.71 40.25
  Z"
/>
<path fill="#fd4102" d="
  M 252.00 41.54
  C 251.72 45.45 249.69 54.53 250.75 57.79
  L 250.33 58.53
  Q 250.08 58.97 249.57 58.99
  C 248.53 59.02 240.82 57.99 241.73 60.20
  Q 242.01 60.86 241.30 60.94
  L 240.71 61.00
  C 238.73 54.45 239.01 51.62 240.25 43.96
  Q 245.43 42.32 250.65 43.76
  Q 251.17 43.91 251.35 43.40
  L 252.00 41.54
  Z"
/>
<path fill="#fefeb1" d="
  M 129.25 42.04
  L 134.96 46.46
  Q 135.40 46.81 135.28 47.36
  L 133.21 57.00
  L 129.91 54.87
  Q 129.53 54.63 129.59 54.19
  L 130.08 50.64
  Q 130.16 50.07 129.79 49.63
  C 127.80 47.23 125.41 43.92 129.25 42.04
  Z"
/>
<path fill="#fefeb1" d="
  M 152.26 41.91
  Q 153.71 46.10 150.63 49.34
  Q 150.26 49.72 150.26 50.25
  Q 150.23 53.71 148.00 56.54
  L 145.61 47.39
  Q 145.47 46.86 145.91 46.54
  L 152.26 41.91
  Z"
/>
<path fill="#fe6703" d="
  M 209.29 43.75
  C 210.67 46.01 213.86 45.40 215.54 48.75
  L 215.50 49.11
  Q 215.46 49.53 215.07 49.38
  Q 213.60 48.84 213.01 47.38
  Q 212.83 46.91 212.32 46.94
  C 210.74 47.01 206.14 46.93 205.02 48.08
  Q 204.66 48.45 204.20 48.21
  L 201.38 46.76
  Q 200.77 46.44 200.46 47.05
  L 200.00 47.96
  Q 199.71 48.12 199.52 48.36
  Q 199.21 48.77 199.24 49.28
  Q 199.37 51.31 198.43 53.32
  L 197.59 49.60
  Q 197.46 49.04 196.90 48.91
  Q 193.65 48.18 190.62 49.63
  Q 190.26 49.81 190.25 50.21
  Q 190.25 50.35 190.24 50.50
  Q 190.19 50.94 189.80 51.17
  Q 188.74 51.78 188.25 52.96
  L 188.96 47.75
  Q 189.19 47.96 189.45 47.98
  Q 189.89 48.02 189.99 47.58
  L 191.01 42.93
  Q 191.15 42.34 191.76 42.34
  L 208.39 42.35
  Q 208.78 42.35 208.92 42.72
  L 209.29 43.75
  Z"
/>
<path fill="#fe6703" d="
  M 182.82 48.92
  Q 182.11 52.26 179.96 55.50
  Q 179.10 54.13 179.59 53.12
  A 1.02 1.02 0.0 0 0 178.67 51.66
  L 170.01 51.71
  Q 169.55 51.71 169.24 52.04
  Q 168.55 52.77 168.12 53.84
  Q 167.89 51.67 166.98 50.10
  Q 166.56 49.38 166.30 50.17
  L 165.71 52.00
  L 163.71 52.25
  L 164.29 48.25
  Q 164.85 47.57 165.81 47.48
  Q 166.20 47.45 166.19 47.06
  L 166.10 44.40
  Q 166.09 43.93 166.56 43.95
  L 171.75 44.21
  L 173.21 44.25
  Q 173.29 45.36 174.52 45.69
  Q 176.36 46.29 177.15 44.29
  Q 177.35 43.78 177.86 43.57
  Q 180.15 42.62 182.57 42.81
  Q 183.07 42.84 183.28 43.29
  C 183.76 44.32 183.59 45.34 183.06 46.49
  Q 182.46 47.77 182.82 48.92
  Z"
/>
<path fill="#fe6703" d="
  M 291.21 48.50
  Q 290.64 48.71 290.19 49.16
  Q 289.75 49.59 289.73 48.97
  L 289.66 47.10
  A 1.15 1.14 84.7 0 0 288.34 46.00
  L 279.26 47.45
  Q 278.77 47.53 278.42 47.88
  Q 277.65 48.66 277.21 49.75
  C 272.08 49.54 265.74 51.46 260.50 52.17
  Q 259.93 52.24 259.98 51.68
  L 260.54 45.50
  Q 261.86 45.56 262.75 44.60
  Q 263.11 44.22 263.62 44.29
  Q 267.92 44.85 272.21 44.25
  L 272.25 46.19
  Q 272.28 47.19 273.25 47.02
  L 292.25 43.79
  Q 292.78 43.70 292.61 44.21
  L 291.21 48.50
  Z"
/>
<path fill="#fe6703" d="
  M 117.25 51.71
  L 113.82 52.54
  Q 112.48 50.56 109.70 51.33
  Q 109.00 51.52 109.00 50.80
  L 109.00 44.92
  Q 109.00 44.27 109.65 44.31
  L 116.17 44.73
  Q 116.66 44.77 116.70 45.26
  L 117.25 51.71
  Z"
/>
<path fill="#fd4102" d="
  M 291.21 48.50
  L 289.56 53.46
  Q 289.36 54.08 288.72 54.20
  L 275.80 56.64
  Q 275.23 56.75 275.39 56.19
  L 277.21 49.75
  Q 277.65 48.66 278.42 47.88
  Q 278.77 47.53 279.26 47.45
  L 288.34 46.00
  A 1.15 1.14 84.7 0 1 289.66 47.10
  L 289.73 48.97
  Q 289.75 49.59 290.19 49.16
  Q 290.64 48.71 291.21 48.50
  Z"
/>
<path fill="#fc1002" d="
  M 85.71 52.25
  L 85.38 54.41
  Q 85.29 55.02 85.87 54.81
  L 87.97 54.04
  Q 88.52 53.83 88.44 53.25
  L 87.82 49.12
  L 90.84 48.55
  Q 91.36 48.45 91.84 48.67
  Q 93.73 49.54 95.49 48.92
  Q 95.95 48.76 95.83 48.28
  Q 95.59 47.36 95.96 46.50
  L 98.08 58.71
  Q 98.37 60.41 96.73 60.91
  L 91.16 62.63
  A 0.84 0.84 0.0 0 1 90.08 61.90
  L 89.85 59.24
  Q 89.79 58.56 89.14 58.76
  L 84.84 60.06
  Q 84.34 60.21 84.14 60.68
  L 82.21 65.32
  Q 82.06 65.68 81.67 65.71
  L 74.47 66.31
  Q 74.15 66.34 74.24 66.03
  L 78.28 51.75
  Q 80.62 50.46 80.72 47.71
  Q 80.74 47.11 81.27 46.81
  Q 84.01 45.27 86.08 47.39
  Q 86.46 47.77 86.15 48.20
  Q 84.81 50.08 85.71 52.25
  Z"
/>
<path fill="#fc1002" d="
  M 231.89 46.22
  L 236.77 64.35
  A 0.87 0.87 0.0 0 1 235.66 65.41
  C 233.52 64.73 231.95 66.75 229.95 65.88
  Q 229.50 65.68 229.35 65.21
  Q 228.83 63.51 228.06 61.91
  Q 227.84 61.46 227.36 61.31
  Q 224.95 60.59 222.59 61.47
  Q 222.10 61.65 222.11 62.17
  L 222.16 65.18
  Q 222.17 65.76 221.59 65.86
  L 212.34 67.51
  Q 211.55 67.65 211.99 66.97
  Q 213.21 65.08 213.26 62.79
  Q 213.27 62.23 213.70 61.86
  Q 217.87 58.30 219.96 53.25
  L 220.18 55.72
  Q 220.23 56.20 220.49 55.80
  Q 221.12 54.83 222.16 55.16
  Q 222.68 55.33 222.90 54.83
  L 223.71 53.00
  Q 223.90 53.98 223.56 55.04
  Q 223.38 55.60 223.86 55.93
  Q 224.81 56.58 226.01 55.91
  Q 226.48 55.65 226.37 55.13
  L 226.04 53.50
  L 226.73 51.91
  Q 226.85 51.64 227.15 51.65
  L 231.11 51.79
  Q 231.76 51.81 231.77 51.17
  L 231.89 46.22
  Z"
/>
<path fill="#fd4102" d="
  M 215.54 48.75
  C 216.85 54.53 210.94 59.41 206.29 61.50
  L 206.67 60.33
  Q 206.80 59.93 207.13 59.69
  L 211.42 56.56
  A 0.68 0.68 0.0 0 0 211.12 55.34
  L 204.46 54.28
  Q 203.89 54.19 203.51 54.63
  Q 201.91 56.47 199.49 56.92
  Q 198.98 57.01 198.65 56.61
  L 197.13 54.78
  Q 196.83 54.42 196.35 54.46
  C 194.93 54.59 188.03 53.91 188.27 56.71
  Q 188.34 57.58 188.02 56.77
  L 187.71 56.00
  L 188.25 52.96
  Q 188.74 51.78 189.80 51.17
  Q 190.19 50.94 190.24 50.50
  Q 190.25 50.35 190.25 50.21
  Q 190.26 49.81 190.62 49.63
  Q 193.65 48.18 196.90 48.91
  Q 197.46 49.04 197.59 49.60
  L 198.43 53.32
  Q 198.27 54.34 198.60 55.36
  Q 198.79 55.94 199.33 55.65
  C 201.63 54.42 204.83 52.06 203.46 49.20
  Q 203.23 48.73 202.73 48.61
  L 200.00 47.96
  L 200.46 47.05
  Q 200.77 46.44 201.38 46.76
  L 204.20 48.21
  Q 204.66 48.45 205.02 48.08
  C 206.14 46.93 210.74 47.01 212.32 46.94
  Q 212.83 46.91 213.01 47.38
  Q 213.60 48.84 215.07 49.38
  Q 215.46 49.53 215.50 49.11
  L 215.54 48.75
  Z"
/>
<path fill="#000000" d="
  M 87.82 49.12
  L 88.44 53.25
  Q 88.52 53.83 87.97 54.04
  L 85.87 54.81
  Q 85.29 55.02 85.38 54.41
  L 85.71 52.25
  L 86.98 47.76
  Q 87.23 46.87 87.46 47.77
  L 87.82 49.12
  Z"
/>
<path fill="#000000" d="
  M 200.00 47.96
  L 202.73 48.61
  Q 203.23 48.73 203.46 49.20
  C 204.83 52.06 201.63 54.42 199.33 55.65
  Q 198.79 55.94 198.60 55.36
  Q 198.27 54.34 198.43 53.32
  Q 199.37 51.31 199.24 49.28
  Q 199.21 48.77 199.52 48.36
  Q 199.71 48.12 200.00 47.96
  Z"
/>
<path fill="#000000" d="
  M 226.04 53.50
  L 226.37 55.13
  Q 226.48 55.65 226.01 55.91
  Q 224.81 56.58 223.86 55.93
  Q 223.38 55.60 223.56 55.04
  Q 223.90 53.98 223.71 53.00
  L 224.37 48.97
  Q 224.58 47.70 224.90 48.95
  L 226.04 53.50
  Z"
/>
<path fill="#fd4102" d="
  M 41.25 48.93
  L 36.04 55.00
  L 36.10 54.64
  Q 36.22 53.84 35.46 54.10
  L 34.78 54.32
  Q 34.29 54.49 34.26 53.97
  L 34.22 53.09
  Q 34.18 52.31 33.62 52.85
  Q 32.94 53.52 32.14 53.18
  Q 31.69 52.99 31.21 52.99
  Q 24.75 53.03 18.27 52.98
  C 15.57 52.96 13.06 53.87 10.25 54.04
  L 9.66 49.58
  Q 29.30 48.85 35.66 49.11
  Q 36.86 49.15 37.84 50.76
  Q 38.09 51.17 38.47 50.89
  L 41.25 48.93
  Z"
/>
<path fill="#fc1002" d="
  M 65.79 50.50
  L 67.44 58.87
  Q 67.54 59.41 67.06 59.67
  Q 66.38 60.05 65.50 59.96
  Q 66.28 58.44 65.57 56.97
  Q 65.36 56.52 65.40 56.02
  L 65.79 50.50
  Z"
/>
<path fill="#fc1002" d="
  M 179.96 55.50
  C 180.26 61.36 174.58 61.74 170.33 62.06
  Q 169.81 62.10 169.71 61.59
  L 168.12 53.84
  Q 168.55 52.77 169.24 52.04
  Q 169.55 51.71 170.01 51.71
  L 178.67 51.66
  A 1.02 1.02 0.0 0 1 179.59 53.12
  Q 179.10 54.13 179.96 55.50
  Z"
/>
<path fill="#fc1002" d="
  M 117.25 51.71
  L 119.10 58.28
  Q 119.24 58.80 119.01 59.29
  Q 114.59 68.62 104.72 64.09
  A 2.03 2.01 -83.4 0 1 103.58 62.64
  L 102.00 54.29
  Q 103.55 54.40 104.79 53.50
  C 106.90 57.53 112.96 58.71 113.82 52.54
  L 117.25 51.71
  Z"
/>
<path fill="#fc1002" d="
  M 165.71 52.00
  L 163.80 63.10
  Q 163.69 63.72 163.08 63.85
  L 158.77 64.77
  Q 157.98 64.94 158.45 64.28
  Q 162.31 58.79 163.71 52.25
  L 165.71 52.00
  Z"
/>
<path fill="#fefeb1" d="
  M 147.50 57.96
  Q 144.20 58.33 141.27 59.84
  Q 140.81 60.07 140.33 59.89
  L 134.00 57.54
  L 140.05 52.49
  Q 140.49 52.13 140.92 52.49
  L 147.50 57.96
  Z"
/>
<path fill="#fc1002" d="
  M 36.04 55.00
  Q 26.32 64.34 13.83 70.49
  Q 12.45 71.17 12.26 69.65
  L 10.25 54.04
  C 13.06 53.87 15.57 52.96 18.27 52.98
  Q 24.75 53.03 31.21 52.99
  Q 31.69 52.99 32.14 53.18
  Q 32.94 53.52 33.62 52.85
  Q 34.18 52.31 34.22 53.09
  L 34.26 53.97
  Q 34.29 54.49 34.78 54.32
  L 35.46 54.10
  Q 36.22 53.84 36.10 54.64
  L 36.04 55.00
  Z"
/>
<path fill="#fc1002" d="
  M 58.79 54.00
  Q 59.12 54.56 59.79 54.53
  Q 60.37 54.50 60.30 55.07
  Q 59.95 58.39 60.79 61.63
  Q 60.39 61.97 59.59 62.17
  Q 59.06 62.30 59.04 61.76
  L 58.79 54.00
  Z"
/>
<path fill="#fc1002" d="
  M 206.29 61.50
  Q 197.47 66.19 187.79 68.41
  A 0.40 0.40 0.0 0 1 187.30 68.01
  L 187.71 56.00
  L 188.02 56.77
  Q 188.34 57.58 188.27 56.71
  C 188.03 53.91 194.93 54.59 196.35 54.46
  Q 196.83 54.42 197.13 54.78
  L 198.65 56.61
  Q 198.98 57.01 199.49 56.92
  Q 201.91 56.47 203.51 54.63
  Q 203.89 54.19 204.46 54.28
  L 211.12 55.34
  A 0.68 0.68 0.0 0 1 211.42 56.56
  L 207.13 59.69
  Q 206.80 59.93 206.67 60.33
  L 206.29 61.50
  Z"
/>
<path fill="#fc1002" d="
  M 240.71 61.00
  L 241.30 60.94
  Q 242.01 60.86 241.73 60.20
  C 240.82 57.99 248.53 59.02 249.57 58.99
  Q 250.08 58.97 250.33 58.53
  L 250.75 57.79
  L 270.75 54.46
  A 0.29 0.29 0.0 0 1 271.07 54.84
  L 267.78 64.25
  Q 267.60 64.78 267.04 64.87
  L 243.52 68.77
  Q 242.91 68.87 242.75 68.27
  L 240.71 61.00
  Z"
/>
<path fill="#fc1002" d="
  M 53.79 56.00
  Q 53.95 57.82 53.12 59.51
  Q 52.91 59.95 53.01 60.42
  Q 53.42 62.30 52.65 64.07
  Q 52.45 64.51 51.98 64.65
  C 48.65 65.61 47.15 67.89 42.79 68.12
  Q 42.43 68.14 42.48 67.78
  L 44.21 56.75
  L 44.26 58.45
  Q 44.27 58.74 44.41 58.48
  L 45.88 55.56
  Q 46.12 55.08 46.65 55.04
  C 48.27 54.91 51.28 54.18 52.46 55.59
  Q 52.72 55.90 53.01 55.61
  L 53.30 55.33
  Q 53.69 54.94 53.74 55.49
  L 53.79 56.00
  Z"
/>
<path fill="#000000" d="
  M 179.50 87.96
  Q 178.96 88.23 178.56 88.12
  Q 178.03 87.98 178.02 87.43
  L 177.96 84.75
  L 178.31 78.15
  Q 178.35 77.50 177.70 77.50
  L 175.70 77.50
  Q 175.01 77.50 175.02 78.18
  L 175.04 83.25
  Q 174.94 83.34 174.87 83.47
  Q 174.63 83.90 174.30 83.54
  L 174.04 83.25
  L 170.72 78.01
  Q 170.40 77.50 169.80 77.50
  L 167.67 77.50
  Q 167.06 77.50 167.06 78.11
  L 167.04 81.75
  L 167.01 86.53
  Q 167.00 86.95 166.89 87.35
  Q 166.78 87.74 166.55 88.15
  Q 166.12 88.92 167.00 88.86
  L 169.79 88.70
  Q 170.37 88.67 170.38 88.09
  L 170.50 82.79
  L 170.82 82.46
  Q 170.99 82.29 171.04 82.53
  Q 171.37 84.37 172.79 85.75
  L 174.43 88.32
  Q 174.71 88.76 175.23 88.75
  L 180.00 88.71
  Q 184.57 89.31 189.40 88.91
  Q 190.00 88.86 190.00 88.26
  L 190.00 76.75
  Q 190.00 76.25 190.50 76.25
  L 201.25 76.25
  Q 202.00 76.25 202.00 77.00
  L 202.00 79.63
  Q 202.00 80.14 201.71 80.56
  Q 200.06 82.91 201.70 85.46
  Q 202.00 85.92 202.00 86.47
  L 202.00 88.31
  Q 202.00 89.00 202.69 89.00
  Q 210.72 88.99 218.67 89.02
  C 219.35 89.02 220.17 89.47 220.13 90.18
  A 2.94 1.55 81.0 0 1 219.53 91.94
  Q 211.33 100.45 202.95 108.70
  Q 202.43 109.20 200.94 110.00
  L 59.44 110.00
  Q 58.08 108.64 59.72 106.96
  Q 68.41 98.10 77.29 89.37
  Q 77.67 89.00 78.20 89.00
  L 80.00 89.00
  Q 80.72 89.00 80.39 88.36
  C 77.56 82.80 79.01 75.98 86.51 76.03
  C 93.54 76.07 95.31 83.34 92.00 88.46
  Q 91.67 88.97 92.27 88.98
  L 103.44 89.05
  Q 104.04 89.06 103.96 88.46
  Q 103.94 88.27 103.80 88.09
  Q 103.50 87.70 103.50 87.21
  L 103.50 76.88
  Q 103.50 76.25 104.13 76.25
  L 108.57 76.25
  Q 109.12 76.25 109.37 76.74
  L 110.29 78.57
  Q 110.81 79.60 111.12 78.50
  Q 111.36 77.67 111.24 76.81
  Q 111.17 76.25 111.73 76.25
  L 116.64 76.25
  Q 117.28 76.25 117.28 76.89
  L 117.19 88.35
  Q 117.19 89.00 117.84 89.00
  L 126.91 89.00
  Q 127.56 89.00 127.56 88.35
  L 127.47 76.89
  Q 127.47 76.25 128.11 76.25
  L 133.12 76.25
  Q 133.80 76.25 133.79 76.93
  L 133.64 83.93
  A 1.05 1.04 -89.5 0 0 134.68 85.00
  L 138.84 85.00
  Q 139.49 85.00 139.49 85.65
  L 139.49 88.18
  A 0.81 0.81 0.0 0 0 140.30 88.99
  L 148.50 89.00
  Q 149.00 89.00 149.00 88.50
  L 149.00 76.78
  Q 149.01 76.24 149.54 76.25
  L 154.44 76.26
  Q 154.99 76.26 154.99 76.82
  L 155.00 88.50
  Q 155.00 89.00 155.50 89.00
  L 165.00 89.00
  A 0.56 0.55 -90.0 0 0 165.55 88.44
  L 165.48 76.89
  Q 165.47 76.25 166.11 76.25
  L 170.47 76.25
  Q 171.15 76.25 171.50 76.83
  L 172.97 79.30
  Q 173.14 79.59 173.44 79.42
  L 173.68 79.28
  Q 173.97 79.10 173.93 78.76
  L 173.71 76.85
  Q 173.64 76.26 174.22 76.26
  L 178.94 76.24
  Q 179.47 76.24 179.47 76.77
  L 179.50 87.96
  Z
  M 81.04 85.75
  L 82.15 88.19
  Q 82.37 88.66 82.88 88.70
  C 86.23 88.95 91.58 89.53 92.00 84.79
  C 94.77 74.36 76.82 74.84 81.04 85.75
  Z
  M 104.79 83.25
  L 105.13 88.03
  Q 105.16 88.57 105.70 88.68
  L 107.18 88.97
  Q 107.82 89.10 107.87 88.45
  L 108.21 83.75
  Q 109.53 83.25 110.04 85.00
  L 112.23 88.33
  Q 112.46 88.68 112.89 88.68
  L 115.15 88.68
  Q 115.66 88.68 115.80 88.20
  Q 116.24 86.76 115.96 85.25
  L 115.98 78.05
  Q 115.99 77.46 115.39 77.48
  L 113.18 77.56
  Q 112.52 77.58 112.55 78.24
  L 112.80 82.84
  A 0.46 0.46 0.0 0 1 111.95 83.12
  L 108.60 78.03
  Q 108.24 77.48 107.58 77.49
  L 105.40 77.52
  Q 104.80 77.53 104.80 78.12
  L 104.79 83.25
  Z
  M 129.04 83.00
  L 129.04 88.08
  Q 129.04 88.75 129.71 88.75
  L 137.41 88.75
  Q 138.09 88.75 138.02 88.08
  L 137.93 87.18
  Q 137.87 86.56 137.25 86.54
  L 132.83 86.42
  Q 132.27 86.40 132.26 85.84
  L 132.21 82.50
  L 132.25 78.06
  Q 132.25 77.49 131.68 77.49
  L 129.41 77.52
  Q 128.65 77.53 128.70 78.29
  L 129.04 83.00
  Z
  M 150.29 84.75
  L 150.44 87.73
  Q 150.46 88.15 150.87 88.19
  L 153.36 88.44
  Q 153.87 88.50 153.88 87.98
  L 153.96 83.75
  L 153.98 78.06
  Q 153.98 77.49 153.41 77.49
  L 150.90 77.52
  Q 150.30 77.52 150.30 78.13
  L 150.29 84.75
  Z
  M 191.04 84.50
  L 191.02 88.26
  Q 191.02 88.75 191.50 88.75
  L 200.37 88.75
  Q 200.94 88.75 200.94 88.19
  L 200.94 87.06
  Q 200.94 86.50 200.37 86.50
  L 195.26 86.50
  Q 194.78 86.50 194.76 86.02
  L 194.71 84.50
  Q 197.03 83.58 199.59 84.15
  Q 200.32 84.32 200.41 83.58
  L 200.53 82.64
  Q 200.61 81.99 199.96 82.00
  C 198.70 82.00 193.80 82.85 194.83 80.23
  Q 195.02 79.75 195.53 79.75
  L 200.14 79.75
  Q 200.78 79.75 200.76 79.11
  L 200.73 78.25
  Q 200.70 77.50 199.94 77.50
  L 191.71 77.50
  Q 191.04 77.50 191.04 78.17
  L 191.04 84.50
  Z
  M 110.5425 88.8891
  A 0.91 0.64 50.2 0 0 110.4517 87.7803
  A 0.91 0.64 50.2 0 0 109.3775 87.4909
  A 0.91 0.64 50.2 0 0 109.4683 88.5997
  A 0.91 0.64 50.2 0 0 110.5425 88.8891
  Z
  M 172.7585 88.8850
  A 1.03 0.79 48.8 0 0 172.6744 87.5896
  A 1.03 0.79 48.8 0 0 171.4015 87.3350
  A 1.03 0.79 48.8 0 0 171.4856 88.6304
  A 1.03 0.79 48.8 0 0 172.7585 88.8850
  Z
  M 109.66 96.83
  A 0.32 0.32 0.0 0 1 110.01 97.22
  L 107.99 106.21
  A 0.32 0.32 0.0 0 0 108.30 106.60
  L 113.54 106.60
  A 0.32 0.32 0.0 0 0 113.86 106.34
  L 115.48 97.01
  A 0.32 0.32 0.0 0 1 115.80 96.75
  L 118.02 96.75
  A 0.32 0.32 0.0 0 0 118.34 96.48
  L 118.91 92.67
  A 0.32 0.32 0.0 0 0 118.60 92.30
  L 108.99 92.34
  A 0.32 0.32 0.0 0 0 108.69 92.56
  L 107.37 96.65
  A 0.32 0.32 0.0 0 0 107.71 97.06
  L 109.66 96.83
  Z
  M 132.5832 93.9500
  A 8.18 6.75 -43.3 0 0 122.0007 94.6475
  A 8.18 6.75 -43.3 0 0 120.6768 105.1700
  A 8.18 6.75 -43.3 0 0 131.2593 104.4725
  A 8.18 6.75 -43.3 0 0 132.5832 93.9500
  Z
  M 149.3769 93.9781
  A 8.20 6.74 -42.9 0 0 138.7819 94.6227
  A 8.20 6.74 -42.9 0 0 137.3631 105.1419
  A 8.20 6.74 -42.9 0 0 147.9581 104.4973
  A 8.20 6.74 -42.9 0 0 149.3769 93.9781
  Z
  M 158.48 102.24
  A 0.38 0.38 0.0 0 1 158.05 101.78
  L 160.10 92.84
  A 0.38 0.38 0.0 0 0 159.73 92.38
  L 154.79 92.38
  A 0.38 0.38 0.0 0 0 154.41 92.69
  L 151.95 106.15
  A 0.38 0.38 0.0 0 0 152.32 106.59
  L 161.76 106.70
  A 0.38 0.38 0.0 0 0 162.13 106.42
  L 163.33 102.06
  A 0.38 0.38 0.0 0 0 162.90 101.59
  L 158.48 102.24
  Z
  M 173.07 92.26
  C 170.12 92.17 166.25 94.29 166.51 97.82
  C 166.71 100.56 169.00 101.15 164.77 102.90
  Q 164.31 103.09 164.46 103.56
  L 165.61 107.19
  Q 165.80 107.78 166.39 107.63
  C 171.02 106.46 174.50 104.11 172.96 98.81
  Q 172.62 97.67 173.65 97.08
  L 174.66 96.50
  Q 175.25 96.16 174.78 95.68
  Q 173.65 94.50 173.69 92.91
  Q 173.71 92.28 173.07 92.26
  Z"
/>
<path fill="#fffefc" d="
  M 92.00 84.79
  Q 91.54 85.03 91.04 85.01
  Q 90.59 84.99 90.51 84.55
  C 90.41 84.04 89.91 83.87 89.46 84.03
  Q 89.00 84.19 89.01 83.70
  Q 89.03 83.06 88.79 82.50
  Q 88.53 80.05 86.27 79.81
  Q 85.75 79.75 85.34 80.07
  Q 83.19 81.75 83.79 84.75
  L 81.04 85.75
  C 76.82 74.84 94.77 74.36 92.00 84.79
  Z"
/>
<path fill="#fffefc" d="
  M 115.96 85.25
  Q 114.57 86.36 113.68 85.31
  Q 113.48 85.08 113.18 85.03
  L 112.20 84.89
  Q 111.95 84.85 111.98 84.59
  Q 112.00 84.45 112.10 84.31
  Q 112.45 83.83 111.74 84.18
  L 110.04 85.00
  Q 109.53 83.25 108.21 83.75
  Q 106.07 85.26 104.79 83.25
  L 104.80 78.12
  Q 104.80 77.53 105.40 77.52
  L 107.58 77.49
  Q 108.24 77.48 108.60 78.03
  L 111.95 83.12
  A 0.46 0.46 0.0 0 0 112.80 82.84
  L 112.55 78.24
  Q 112.52 77.58 113.18 77.56
  L 115.39 77.48
  Q 115.99 77.46 115.98 78.05
  L 115.96 85.25
  Z"
/>
<path fill="#fffefc" d="
  M 132.21 82.50
  Q 130.77 83.37 129.04 83.00
  L 128.70 78.29
  Q 128.65 77.53 129.41 77.52
  L 131.68 77.49
  Q 132.25 77.49 132.25 78.06
  L 132.21 82.50
  Z"
/>
<path fill="#fffefc" d="
  M 153.96 83.75
  L 150.29 84.75
  L 150.30 78.13
  Q 150.30 77.52 150.90 77.52
  L 153.41 77.49
  Q 153.98 77.49 153.98 78.06
  L 153.96 83.75
  Z"
/>
<path fill="#fffefc" d="
  M 174.04 83.25
  Q 174.23 85.15 172.79 85.75
  Q 171.37 84.37 171.04 82.53
  Q 170.99 82.29 170.82 82.46
  L 170.50 82.79
  Q 168.67 82.67 167.04 81.75
  L 167.06 78.11
  Q 167.06 77.50 167.67 77.50
  L 169.80 77.50
  Q 170.40 77.50 170.72 78.01
  L 174.04 83.25
  Z"
/>
<path fill="#fffefc" d="
  M 177.96 84.75
  Q 176.83 84.88 176.52 84.02
  Q 176.37 83.63 175.97 83.51
  L 175.04 83.25
  L 175.02 78.18
  Q 175.01 77.50 175.70 77.50
  L 177.70 77.50
  Q 178.35 77.50 178.31 78.15
  L 177.96 84.75
  Z"
/>
<path fill="#fffefc" d="
  M 194.71 84.50
  L 191.04 84.50
  L 191.04 78.17
  Q 191.04 77.50 191.71 77.50
  L 199.94 77.50
  Q 200.70 77.50 200.73 78.25
  L 200.76 79.11
  Q 200.78 79.75 200.14 79.75
  L 195.53 79.75
  Q 195.02 79.75 194.83 80.23
  C 193.80 82.85 198.70 82.00 199.96 82.00
  Q 200.61 81.99 200.53 82.64
  L 200.41 83.58
  Q 200.32 84.32 199.59 84.15
  Q 197.03 83.58 194.71 84.50
  Z"
/>
<path fill="#000000" d="
  M 88.79 82.50
  Q 89.13 85.54 86.82 87.23
  Q 86.44 87.51 86.12 87.17
  L 83.79 84.75
  Q 83.19 81.75 85.34 80.07
  Q 85.75 79.75 86.27 79.81
  Q 88.53 80.05 88.79 82.50
  Z
  M 86.2980 85.5600
  A 2.30 1.24 90.3 0 0 87.5500 83.2665
  A 2.30 1.24 90.3 0 0 86.3220 80.9600
  A 2.30 1.24 90.3 0 0 85.0700 83.2535
  A 2.30 1.24 90.3 0 0 86.2980 85.5600
  Z"
/>
<path fill="#bab7b9" d="
  M 167.04 81.75
  Q 168.67 82.67 170.50 82.79
  L 170.38 88.09
  Q 170.37 88.67 169.79 88.70
  L 167.00 88.86
  Q 166.12 88.92 166.55 88.15
  Q 166.78 87.74 166.89 87.35
  Q 167.00 86.95 167.01 86.53
  L 167.04 81.75
  Z"
/>
<path fill="#bab7b9" d="
  M 88.79 82.50
  Q 89.03 83.06 89.01 83.70
  Q 89.00 84.19 89.46 84.03
  C 89.91 83.87 90.41 84.04 90.51 84.55
  Q 90.59 84.99 91.04 85.01
  Q 91.54 85.03 92.00 84.79
  C 91.58 89.53 86.23 88.95 82.88 88.70
  Q 82.37 88.66 82.15 88.19
  L 81.04 85.75
  L 83.79 84.75
  L 86.12 87.17
  Q 86.44 87.51 86.82 87.23
  Q 89.13 85.54 88.79 82.50
  Z"
/>
<path fill="#bab7b9" d="
  M 132.21 82.50
  L 132.26 85.84
  Q 132.27 86.40 132.83 86.42
  L 137.25 86.54
  Q 137.87 86.56 137.93 87.18
  L 138.02 88.08
  Q 138.09 88.75 137.41 88.75
  L 129.71 88.75
  Q 129.04 88.75 129.04 88.08
  L 129.04 83.00
  Q 130.77 83.37 132.21 82.50
  Z"
/>
<path fill="#bab7b9" d="
  M 104.79 83.25
  Q 106.07 85.26 108.21 83.75
  L 107.87 88.45
  Q 107.82 89.10 107.18 88.97
  L 105.70 88.68
  Q 105.16 88.57 105.13 88.03
  L 104.79 83.25
  Z"
/>
<path fill="#bab7b9" d="
  M 174.04 83.25
  L 174.30 83.54
  Q 174.63 83.90 174.87 83.47
  Q 174.94 83.34 175.04 83.25
  L 175.97 83.51
  Q 176.37 83.63 176.52 84.02
  Q 176.83 84.88 177.96 84.75
  L 178.02 87.43
  Q 178.03 87.98 178.56 88.12
  Q 178.96 88.23 179.50 87.96
  L 180.00 88.71
  L 175.23 88.75
  Q 174.71 88.76 174.43 88.32
  L 172.79 85.75
  Q 174.23 85.15 174.04 83.25
  Z"
/>
<path fill="#bab7b9" d="
  M 153.96 83.75
  L 153.88 87.98
  Q 153.87 88.50 153.36 88.44
  L 150.87 88.19
  Q 150.46 88.15 150.44 87.73
  L 150.29 84.75
  L 153.96 83.75
  Z"
/>
<path fill="#bab7b9" d="
  M 115.96 85.25
  Q 116.24 86.76 115.80 88.20
  Q 115.66 88.68 115.15 88.68
  L 112.89 88.68
  Q 112.46 88.68 112.23 88.33
  L 110.04 85.00
  L 111.74 84.18
  Q 112.45 83.83 112.10 84.31
  Q 112.00 84.45 111.98 84.59
  Q 111.95 84.85 112.20 84.89
  L 113.18 85.03
  Q 113.48 85.08 113.68 85.31
  Q 114.57 86.36 115.96 85.25
  Z"
/>
<path fill="#bab7b9" d="
  M 191.04 84.50
  L 194.71 84.50
  L 194.76 86.02
  Q 194.78 86.50 195.26 86.50
  L 200.37 86.50
  Q 200.94 86.50 200.94 87.06
  L 200.94 88.19
  Q 200.94 88.75 200.37 88.75
  L 191.50 88.75
  Q 191.02 88.75 191.02 88.26
  L 191.04 84.50
  Z"
/>
<path fill="#fd8308" d="
  M 109.66 96.83
  L 107.71 97.06
  A 0.32 0.32 0.0 0 1 107.37 96.65
  L 108.69 92.56
  A 0.32 0.32 0.0 0 1 108.99 92.34
  L 118.60 92.30
  A 0.32 0.32 0.0 0 1 118.91 92.67
  L 118.34 96.48
  A 0.32 0.32 0.0 0 1 118.02 96.75
  L 115.80 96.75
  A 0.32 0.32 0.0 0 0 115.48 97.01
  L 113.86 106.34
  A 0.32 0.32 0.0 0 1 113.54 106.60
  L 108.30 106.60
  A 0.32 0.32 0.0 0 1 107.99 106.21
  L 110.01 97.22
  A 0.32 0.32 0.0 0 0 109.66 96.83
  Z"
/>
<path fill="#fd8308" d="
  M 132.5832 93.9500
  A 8.18 6.75 -43.3 0 1 131.2593 104.4725
  A 8.18 6.75 -43.3 0 1 120.6768 105.1700
  A 8.18 6.75 -43.3 0 1 122.0007 94.6475
  A 8.18 6.75 -43.3 0 1 132.5832 93.9500
  Z
  M 128.2102 98.1530
  A 2.15 1.79 -42.3 0 0 125.4153 98.2761
  A 2.15 1.79 -42.3 0 0 125.0298 101.0470
  A 2.15 1.79 -42.3 0 0 127.8247 100.9239
  A 2.15 1.79 -42.3 0 0 128.2102 98.1530
  Z"
/>
<path fill="#fd8308" d="
  M 149.3769 93.9781
  A 8.20 6.74 -42.9 0 1 147.9581 104.4973
  A 8.20 6.74 -42.9 0 1 137.3631 105.1419
  A 8.20 6.74 -42.9 0 1 138.7819 94.6227
  A 8.20 6.74 -42.9 0 1 149.3769 93.9781
  Z
  M 144.9973 98.1865
  A 2.15 1.79 -40.4 0 0 142.1999 98.2168
  A 2.15 1.79 -40.4 0 0 141.7227 100.9735
  A 2.15 1.79 -40.4 0 0 144.5201 100.9432
  A 2.15 1.79 -40.4 0 0 144.9973 98.1865
  Z"
/>
<path fill="#fd8308" d="
  M 158.48 102.24
  L 162.90 101.59
  A 0.38 0.38 0.0 0 1 163.33 102.06
  L 162.13 106.42
  A 0.38 0.38 0.0 0 1 161.76 106.70
  L 152.32 106.59
  A 0.38 0.38 0.0 0 1 151.95 106.15
  L 154.41 92.69
  A 0.38 0.38 0.0 0 1 154.79 92.38
  L 159.73 92.38
  A 0.38 0.38 0.0 0 1 160.10 92.84
  L 158.05 101.78
  A 0.38 0.38 0.0 0 0 158.48 102.24
  Z"
/>
<path fill="#fd8308" d="
  M 166.51 97.82
  C 166.25 94.29 170.12 92.17 173.07 92.26
  Q 173.71 92.28 173.69 92.91
  Q 173.65 94.50 174.78 95.68
  Q 175.25 96.16 174.66 96.50
  L 173.65 97.08
  Q 172.62 97.67 172.96 98.81
  C 174.50 104.11 171.02 106.46 166.39 107.63
  Q 165.80 107.78 165.61 107.19
  L 164.46 103.56
  Q 164.31 103.09 164.77 102.90
  C 169.00 101.15 166.71 100.56 166.51 97.82
  Z"
/>
<ellipse fill="#000000" cx="0.00" cy="0.00" transform="translate(126.62,99.60) rotate(-42.3)" rx="2.15" ry="1.79"/>
<ellipse fill="#000000" cx="0.00" cy="0.00" transform="translate(143.36,99.58) rotate(-40.4)" rx="2.15" ry="1.79"/>
</svg>
