{"accessors" : [{"bufferView" : 0, "byteOffset" : 0, "componentType" : 5123, "count" : 5520, "type" : "SCALAR", "max" : [4825], "min" : [0]}, {"bufferView" : 1, "byteOffset" : 0, "componentType" : 5126, "count" : 4826, "type" : "VEC3", "max" : [0.7969340085983276, 1.6086210012435913, 0.17548500001430511], "min" : [-0.8007400035858154, -0.0007210000185295939, -0.1965479999780655], "name" : "POSITION"}, {"bufferView" : 1, "byteOffset" : 12, "componentType" : 5126, "count" : 4826, "type" : "VEC2", "max" : [0.9965999722480774, -0.002099999925121665], "min" : [0.5019999742507935, -0.9986000061035156], "name" : "TEXCOORD_0"}, {"bufferView" : 1, "byteOffset" : 20, "componentType" : 5126, "count" : 4826, "type" : "VEC3", "max" : [0.9989042282104492, 0.9999890923500061, 0.999981164932251], "min" : [-0.9989033341407776, -0.999723494052887, -1.0000026226043701], "name" : "NORMAL"}, {"bufferView" : 0, "byteOffset" : 11040, "componentType" : 5123, "count" : 1692, "type" : "SCALAR", "max" : [1492], "min" : [0]}, {"bufferView" : 2, "byteOffset" : 0, "componentType" : 5126, "count" : 1493, "type" : "VEC3", "max" : [0.296517014503479, 2.0601329803466797, 0.21573099493980408], "min" : [-0.40751299262046814, 1.5387359857559204, -0.23553800582885742], "name" : "POSITION"}, {"bufferView" : 2, "byteOffset" : 12, "componentType" : 5126, "count" : 1493, "type" : "VEC2", "max" : [0.4984000027179718, -0.0005000000237487257], "min" : [0.0026000000070780516, -0.978600025177002], "name" : "TEXCOORD_0"}, {"bufferView" : 2, "byteOffset" : 20, "componentType" : 5126, "count" : 1493, "type" : "VEC3", "max" : [0.998268187046051, 0.9999812245368958, 0.9982963800430298], "min" : [-0.9795306921005249, -0.9708908200263977, -0.9984545111656189], "name" : "NORMAL"}, {"bufferView" : 0, "byteOffset" : 14424, "componentType" : 5123, "count" : 1914, "type" : "SCALAR", "max" : [1623], "min" : [0]}, {"bufferView" : 3, "byteOffset" : 0, "componentType" : 5126, "count" : 1624, "type" : "VEC3", "max" : [0.5977450013160706, 3.0909979343414307, 0.5537649989128113], "min" : [-0.6570680141448975, 0.6913939714431763, -0.4986119866371155], "name" : "POSITION"}, {"bufferView" : 3, "byteOffset" : 12, "componentType" : 5126, "count" : 1624, "type" : "VEC2", "max" : [0.9905999898910522, -0.002400000113993883], "min" : [0.006099999882280827, -0.991599977016449], "name" : "TEXCOORD_0"}, {"bufferView" : 3, "byteOffset" : 20, "componentType" : 5126, "count" : 1624, "type" : "VEC3", "max" : [0.9999610781669617, 0.9828974008560181, 0.9963822364807129], "min" : [-0.9988851547241211, -0.9980519413948059, -0.99994957447052], "name" : "NORMAL"}], "asset" : {"generator" : "Aspose.3D 23.6.0", "version" : "2.0"}, "buffers" : [{"uri" : "data:application/octet-stream;base64,", "byteLength" : 310300}], "bufferViews" : [{"buffer" : 0, "byteOffset" : 0, "byteLength" : 18252, "target" : 34963}, {"buffer" : 0, "byteOffset" : 18256, "byteLength" : 176640, "byteStride" : 32, "target" : 34962}, {"buffer" : 0, "byteOffset" : 194900, "byteLength" : 54144, "byteStride" : 32, "target" : 34962}, {"buffer" : 0, "byteOffset" : 249048, "byteLength" : 61248, "byteStride" : 32, "target" : 34962}], "images" : [{"uri" : "data:image/png;base64,"}, {"uri" : "data:image/png;base64,"}, {"uri" : "data:image/png;base64,"}], "materials" : [{"name" : "Body", "pbrMetallicRoughness" : {"baseColorFactor" : [0.64, 0.64, 0.64, 1], "baseColorTexture" : {"index" : 0, "texCoord" : 0}, "metallicFactor" : 0, "roughnessFactor" : 0}, "emissiveFactor" : [0, 0, 0], "alphaMode" : "OPAQUE", "doubleSided" : false}, {"name" : "Head", "pbrMetallicRoughness" : {"baseColorFactor" : [0.64, 0.64, 0.64, 1], "baseColorTexture" : {"index" : 1, "texCoord" : 0}, "metallicFactor" : 0, "roughnessFactor" : 0}, "emissiveFactor" : [0, 0, 0], "alphaMode" : "OPAQUE", "doubleSided" : false}, {"name" : "Kintoun", "pbrMetallicRoughness" : {"baseColorFactor" : [0.64, 0.64, 0.64, 1], "baseColorTexture" : {"index" : 2, "texCoord" : 0}, "metallicFactor" : 0, "roughnessFactor" : 0}, "emissiveFactor" : [0, 0, 0], "alphaMode" : "OPAQUE", "doubleSided" : false}], "meshes" : [{"primitives" : [{"attributes" : {"POSITION" : 1, "TEXCOORD_0" : 2, "NORMAL" : 3}, "indices" : 0, "material" : 0, "mode" : 4}], "name" : ""}, {"primitives" : [{"attributes" : {"POSITION" : 5, "TEXCOORD_0" : 6, "NORMAL" : 7}, "indices" : 4, "material" : 1, "mode" : 4}], "name" : ""}, {"primitives" : [{"attributes" : {"POSITION" : 9, "TEXCOORD_0" : 10, "NORMAL" : 11}, "indices" : 8, "material" : 2, "mode" : 4}], "name" : ""}], "nodes" : [{"mesh" : 0, "name" : "Body_submesh_3_3"}, {"mesh" : 1, "name" : "Head_submesh_2_3"}, {"mesh" : 2, "name" : "Kintoun_submesh_1_3"}], "samplers" : [{"magFilter" : 9729, "minFilter" : 9729, "wrapS" : 10497, "wrapT" : 10497}, {"magFilter" : 9729, "minFilter" : 9729, "wrapS" : 10497, "wrapT" : 10497}, {"magFilter" : 9729, "minFilter" : 9729, "wrapS" : 10497, "wrapT" : 10497}], "scene" : 0, "scenes" : [{"nodes" : [0, 1, 2]}], "textures" : [{"sampler" : 0, "source" : 0, "name" : ""}, {"sampler" : 1, "source" : 1, "name" : ""}, {"sampler" : 2, "source" : 2, "name" : ""}]}